<?xml version="1.0" encoding="UTF-8" standalone="no"?>
<!-- Created with Inkscape (http://www.inkscape.org/) -->

<svg
   xmlns:dc="http://purl.org/dc/elements/1.1/"
   xmlns:cc="http://creativecommons.org/ns#"
   xmlns:rdf="http://www.w3.org/1999/02/22-rdf-syntax-ns#"
   xmlns:svg="http://www.w3.org/2000/svg"
   xmlns="http://www.w3.org/2000/svg"
   xmlns:sodipodi="http://sodipodi.sourceforge.net/DTD/sodipodi-0.dtd"
   xmlns:inkscape="http://www.inkscape.org/namespaces/inkscape"
   width="512"
   height="512"
   viewBox="0 0 135.46666 135.46666"
   version="1.1"
   id="svg8"
   inkscape:version="0.92.4 (5da689c313, 2019-01-14)"
   sodipodi:docname="dotnet.svg"
   inkscape:export-filename="D:\Users\midoliy\picture\inkscape\png\dotnet.png"
   inkscape:export-xdpi="97.39035"
   inkscape:export-ydpi="97.39035">
  <defs
     id="defs2" />
  <sodipodi:namedview
     id="base"
     pagecolor="#ffffff"
     bordercolor="#666666"
     borderopacity="1.0"
     inkscape:pageopacity="0.0"
     inkscape:pageshadow="2"
     inkscape:zoom="0.7"
     inkscape:cx="-25.285719"
     inkscape:cy="247.38345"
     inkscape:document-units="mm"
     inkscape:current-layer="layer1"
     showgrid="false"
     units="px"
     inkscape:pagecheckerboard="true"
     showborder="true"
     borderlayer="true"
     inkscape:showpageshadow="false"
     inkscape:window-width="1858"
     inkscape:window-height="1057"
     inkscape:window-x="1912"
     inkscape:window-y="1072"
     inkscape:window-maximized="1" />
  <metadata
     id="metadata5">
    <rdf:RDF>
      <cc:Work
         rdf:about="">
        <dc:format>image/svg+xml</dc:format>
        <dc:type
           rdf:resource="http://purl.org/dc/dcmitype/StillImage" />
        <dc:title />
      </cc:Work>
    </rdf:RDF>
  </metadata>
  <g
     inkscape:label="レイヤー 1"
     inkscape:groupmode="layer"
     id="layer1"
     style="display:inline"
     transform="translate(0,-161.53336)">
    <path
       style="fill:#7600e3;stroke-width:0.31207171;fill-opacity:1"
       d="m 72.258641,173.78894 a 56.794772,56.377162 0 0 0 -54.375493,40.17274 16.704346,16.704346 0 0 1 0.712101,-0.0863 16.704346,16.704346 0 0 1 1.181324,-0.0419 16.704346,16.704346 0 0 1 1.667598,0.0832 16.704346,16.704346 0 0 1 1.651062,0.24959 16.704346,16.704346 0 0 1 1.617989,0.4129 16.704346,16.704346 0 0 1 1.56838,0.57257 16.704346,16.704346 0 0 1 1.503784,0.72657 16.704346,16.704346 0 0 1 1.423169,0.87282 16.704346,16.704346 0 0 1 1.329634,1.01027 16.704346,16.704346 0 0 1 1.221631,1.13843 16.704346,16.704346 0 0 1 1.101741,1.25419 16.704346,16.704346 0 0 1 0.971518,1.35806 16.704346,16.704346 0 0 1 0.83044,1.44849 16.704346,16.704346 0 0 1 0.682128,1.52394 16.704346,16.704346 0 0 1 0.526584,1.58491 16.704346,16.704346 0 0 1 0.365869,1.62884 16.704346,16.704346 0 0 1 0.201022,1.65778 16.704346,16.704346 0 0 1 0.04186,1.18184 16.704346,16.704346 0 0 1 -0.0832,1.6676 16.704346,16.704346 0 0 1 -0.249597,1.65055 16.704346,16.704346 0 0 1 -0.413412,1.61799 16.704346,16.704346 0 0 1 -0.572577,1.56837 16.704346,16.704346 0 0 1 -0.726053,1.50379 16.704346,16.704346 0 0 1 -0.872813,1.42368 16.704346,16.704346 0 0 1 -1.010275,1.32912 16.704346,16.704346 0 0 1 -1.138433,1.22163 16.704346,16.704346 0 0 1 -1.254186,1.10174 16.704346,16.704346 0 0 1 -1.358574,0.97152 16.704346,16.704346 0 0 1 -1.447973,0.83096 16.704346,16.704346 0 0 1 -1.524455,0.68213 16.704346,16.704346 0 0 1 -1.584399,0.52606 16.704346,16.704346 0 0 1 -1.629359,0.36587 16.704346,16.704346 0 0 1 -1.657262,0.20103 16.704346,16.704346 0 0 1 -1.18184,0.0418 16.704346,16.704346 0 0 1 -1.601453,-0.0801 56.794772,56.377162 0 0 0 54.083521,39.38157 56.794772,56.377162 0 0 0 56.794998,-56.37744 56.794772,56.377162 0 0 0 -56.794998,-56.37692 z"
       id="path3729"
       inkscape:connector-curvature="0" />
    <circle
       style="fill:#b100b9;stroke-width:0.31431702;fill-opacity:1"
       id="path3767"
       cx="19.579168"
       cy="230.66521"
       r="14.930059" />
    <path
       inkscape:connector-curvature="0"
       style="display:inline;fill:#6300bd;fill-opacity:1;stroke-width:0.31207171"
       d="m 72.258642,173.7883 v 5.3e-4 a 56.794773,56.377163 0 0 0 -37.563084,14.17948 l 73.355722,85.91724 A 56.794773,56.377163 0 0 0 129.05362,230.16522 56.794773,56.377163 0 0 0 72.258642,173.7883 Z"
       id="path3729-7" />
    <text
       xml:space="preserve"
       style="font-style:normal;font-variant:normal;font-weight:bold;font-stretch:normal;font-size:47.77229691px;line-height:1.25;font-family:'Yu Gothic UI';-inkscape-font-specification:'Yu Gothic UI, Bold';font-variant-ligatures:normal;font-variant-caps:normal;font-variant-numeric:normal;font-feature-settings:normal;text-align:start;letter-spacing:0px;word-spacing:0px;writing-mode:lr-tb;text-anchor:start;fill:#ffffff;fill-opacity:1;stroke:none;stroke-width:1.19429135;"
       x="35.840157"
       y="246.19524"
       id="text3773"><tspan
         sodipodi:role="line"
         id="tspan3771"
         x="35.840157"
         y="246.19524"
         style="font-style:normal;font-variant:normal;font-weight:bold;font-stretch:normal;font-size:47.77229691px;font-family:'Yu Gothic UI';-inkscape-font-specification:'Yu Gothic UI, Bold';font-variant-ligatures:normal;font-variant-caps:normal;font-variant-numeric:normal;font-feature-settings:normal;text-align:start;writing-mode:lr-tb;text-anchor:start;fill:#ffffff;stroke-width:1.19429135;fill-opacity:1;">NET</tspan></text>
  </g>
</svg>
