<?xml version="1.0" encoding="UTF-8" standalone="no"?>
<!-- Created with Inkscape (http://www.inkscape.org/) -->

<svg
   xmlns:dc="http://purl.org/dc/elements/1.1/"
   xmlns:cc="http://creativecommons.org/ns#"
   xmlns:rdf="http://www.w3.org/1999/02/22-rdf-syntax-ns#"
   xmlns:svg="http://www.w3.org/2000/svg"
   xmlns="http://www.w3.org/2000/svg"
   xmlns:sodipodi="http://sodipodi.sourceforge.net/DTD/sodipodi-0.dtd"
   xmlns:inkscape="http://www.inkscape.org/namespaces/inkscape"
   width="250"
   height="250"
   viewBox="0 0 66.145833 66.145839"
   version="1.1"
   id="svg3781"
   sodipodi:docname="nonpro_003_match.svg"
   inkscape:export-filename="D:\Users\midoliy\picture\inkscape\png\nonpro_002_option.png"
   inkscape:export-xdpi="96"
   inkscape:export-ydpi="96"
   inkscape:version="0.92.4 (5da689c313, 2019-01-14)">
  <defs
     id="defs3775" />
  <sodipodi:namedview
     id="base"
     pagecolor="#ffffff"
     bordercolor="#666666"
     borderopacity="1.0"
     inkscape:pageopacity="0.0"
     inkscape:pageshadow="2"
     inkscape:zoom="2"
     inkscape:cx="-4.5504454"
     inkscape:cy="127.98424"
     inkscape:document-units="mm"
     inkscape:current-layer="layer1"
     showgrid="false"
     units="px"
     inkscape:pagecheckerboard="true"
     inkscape:showpageshadow="false"
     showguides="false"
     inkscape:window-width="1780"
     inkscape:window-height="1080"
     inkscape:window-x="1760"
     inkscape:window-y="659"
     inkscape:window-maximized="0" />
  <metadata
     id="metadata3778">
    <rdf:RDF>
      <cc:Work
         rdf:about="">
        <dc:format>image/svg+xml</dc:format>
        <dc:type
           rdf:resource="http://purl.org/dc/dcmitype/StillImage" />
        <dc:title />
      </cc:Work>
    </rdf:RDF>
  </metadata>
  <g
     inkscape:label="レイヤー 1"
     inkscape:groupmode="layer"
     id="layer1"
     transform="translate(0,-230.85415)">
    <rect
       style="fill:#89ca51;fill-opacity:1;stroke-width:0.29616973"
       id="rect851"
       width="45.610138"
       height="45.610138"
       x="187.25623"
       y="140.17059"
       transform="rotate(45)" />
    <path
       style="fill:#73b839;fill-opacity:1;stroke-width:0.29616973"
       d="M 33.281172,296.04114 V 263.77696 H 1.0433321 l -0.0331,0.0331 32.2507499,32.25126 z"
       id="path885-6"
       inkscape:connector-curvature="0" />
    <g
       id="g3803"
       transform="matrix(0.03760437,0,0,0.03760437,0.31573793,270.51269)">
      <path
         id="path3785"
         d="m 555.3,541.1 c 0,0 9.6,47.7 46.1,50.9 36.5,3.2 -38.6,63.8 -105.1,-3.2 0,0 -34.8,83.1 -89,11.3 0,0 -47.7,77.7 -92.7,1.1 0,0 -46.6,68.6 -88.4,3.8 0,0 -56.3,62.2 -104,-5.9 0,0 55.7,-8 60,-40.7 4.3,-32.7 -1.6,-278.7 -1.6,-278.7 0,0 22.5,-176.9 178.5,-186 156,-9.1 188.7,159.2 188.7,159.2 z"
         class="st0"
         inkscape:connector-curvature="0"
         style="fill:#ffffff" />
      <path
         id="path3787"
         d="m 342.5,88.8 c 41.7,-6 85.1,3.8 121.1,26.8 31,19.6 56.5,48.7 73.4,82.5 15.3,30.4 23.6,64.6 24.4,99 0.1,1.9 0.4,3.8 0.4,5.6 v 220.6 c 0,2.2 -0.1,4.4 0.2,6.6 0.5,3.9 0,7.8 0.8,11.7 1.1,5.3 2.5,10.7 5.1,15.4 7.2,14.2 21,23.8 35.6,27 3,0.7 6.5,0.6 8.8,3.2 3.6,3.5 3.2,10.5 -0.9,13.4 -2,1.2 -3.2,3.5 -4.8,5.2 -12.7,15.1 -31.5,23.8 -50.4,24.6 -21.4,1.4 -43.3,-7.3 -58,-24 -2.4,4.1 -5,8.1 -8.3,11.7 -3.2,3.8 -7.1,6.7 -10.9,9.5 -3,1.5 -5.8,3.5 -9,4.7 -8.8,3.9 -18.6,4.7 -28,3.7 -13.5,-1.8 -26,-9 -35.1,-19.7 -10.2,16.4 -28.4,26.8 -47,26.4 -5.3,0.3 -10.5,-1.1 -15.5,-2.2 -12.1,-3.7 -22.9,-11.9 -30.2,-22.7 -7.8,10.9 -19.4,18.4 -31.9,21.4 -9.7,2.2 -20,1.9 -29.5,-1.4 -7.6,-2.5 -14.5,-6.8 -20.4,-12.4 -2,-1.7 -3.5,-4.1 -5.5,-5.9 -12.2,11.4 -28.2,18.2 -44.5,19.1 -18.4,1.3 -37.3,-4.6 -51.6,-17.1 -4.3,-3.6 -8,-7.8 -11.4,-12.4 -1.3,-1.8 -1.6,-4.1 -2.9,-6 -2.5,-3.8 -1.3,-9.4 2.3,-11.9 2.4,-1.9 5.6,-1.5 8.4,-1.9 10.6,-1.5 20.8,-6.3 28.9,-13.6 9.6,-8.7 16.2,-21.7 16.3,-35.2 0.5,-12.7 0.1,-25.4 0.2,-38.1 v -199 c 0.2,-2.8 -0.5,-5.7 -0.4,-8.5 1.1,-30.3 7.9,-60.4 20.2,-87.8 13.7,-30.6 34.2,-57.8 59.6,-78.3 26.5,-21.4 57.8,-35.5 90.5,-40 m 14.4,16.2 c -25.6,1.6 -50.8,9.6 -73.2,22.8 -21.4,12.6 -40.3,30.1 -55.2,50.7 -23.3,31.9 -36.9,71.5 -39.1,111.8 0.3,8.3 0.1,16.7 0.2,25 v 148.9 c -0.1,25.6 0.2,51.2 -0.1,76.7 -0.4,11.7 -3.8,23.2 -9.9,33 -9.3,15.5 -24.7,26.3 -41.3,30.9 5.3,5.1 11.4,9.2 18.1,11.9 8.7,3.7 18.3,4.7 27.6,3.9 12.8,-1.1 25.2,-7 34.4,-16.5 1.6,-1.4 1.4,-3.9 2.8,-5.5 2.5,-3.5 7.7,-4.4 11.1,-1.9 2.1,1.4 3.1,4 4.4,6.1 1.8,2.8 3.8,5.5 6,7.9 5.2,5.7 12.1,9.4 19.4,11.1 3.8,0.9 7.7,0.8 11.5,0.7 14.2,-0.9 27.4,-10.7 33,-24.6 2.2,-6.4 11.3,-8.1 15.4,-3 1.7,2 2.1,4.8 3.4,7.2 4.9,10.1 13.7,17.9 23.9,21.1 4.2,1 8.5,1.9 12.8,1.6 14,-0.3 27.5,-9.2 33.7,-22.5 1.6,-2.8 2,-6.3 4,-8.9 2.7,-3.6 8.3,-4.1 11.6,-1.2 1.7,1.3 2.3,3.6 3.6,5.2 1.4,1.8 2.5,3.8 3.9,5.6 7.6,9.7 19.2,16 31.2,15.5 6.3,0.1 12.8,-1.4 18.3,-4.8 5.8,-3.3 11,-8.1 14.7,-14 1.8,-2.8 2.7,-6.1 4.3,-9 1.1,-1.7 0.6,-4 1.6,-5.7 1.7,-3.9 6.2,-5.9 10,-4.4 3.1,1 4.8,4.1 6.8,6.7 3.4,5.7 8,10.6 13.2,14.6 17.1,13 40.9,14.7 59.8,5.1 4.4,-2.2 8.4,-5.3 12.3,-8.5 -10.3,-3.9 -19.6,-10.3 -27.3,-18.5 -6.7,-7.4 -12,-16.5 -14.7,-26.4 -1.9,-6 -2.4,-12.4 -3,-18.7 V 308.1 c 0,-1.9 -0.4,-3.8 -0.4,-5.7 -0.1,-18.8 -2.5,-37.6 -7.4,-55.7 C 528,207.6 506.2,171.9 476.5,146.2 462.7,134.5 447.3,124.5 430.8,117.9 407,107.7 381.8,103.4 356.9,105 Z"
         class="st1"
         inkscape:connector-curvature="0"
         style="fill:#036994" />
      <path
         id="path3789"
         d="m 441.4,296.9 c -9.5,3.3 -20,3.8 -29.8,1.1 -11.6,-3.1 -22,-10.4 -28.7,-20.4 -6.3,-9.2 -9.4,-20.5 -8.7,-31.6 0.6,-11 5,-21.8 12.3,-30.2 0.5,-0.6 1.2,-0.9 1.9,-1.1 16.7,-4.6 33.4,-9.3 50.1,-14 1.3,-0.4 2.6,0.4 3.9,0.8 12,4.4 22.1,13.5 27.7,24.9 4.2,8.5 6,18.2 5,27.6 -1.1,11.1 -6.1,21.9 -13.9,30 -5.4,5.9 -12.3,10.3 -19.8,12.9 z"
         class="st1"
         inkscape:connector-curvature="0"
         style="fill:#036994" />
      <path
         id="path3791"
         d="m 300.2,299.4 c -11.6,-1.2 -22.6,-6.5 -30.8,-14.9 -12.2,-12.3 -17.4,-31.1 -12.9,-47.9 4.1,-16.7 17.4,-30.9 33.9,-35.8 17.1,4.3 34.1,9.1 51.2,13.6 1.6,0.2 2.5,1.7 3.4,2.8 4.9,6.1 8.4,13.2 10,20.9 2.4,10.3 1.3,21.5 -3,31.2 -4.2,9.8 -11.6,18.1 -20.8,23.4 -9.2,5.5 -20.3,7.9 -31,6.7 z"
         class="st1"
         inkscape:connector-curvature="0"
         style="fill:#036994" />
      <path
         id="path3793"
         d="m 282.8,345.2 c 0,0 78,36.2 163.2,0"
         class="st2"
         inkscape:connector-curvature="0"
         style="fill:none;stroke:#036994;stroke-width:14.47340012;stroke-linecap:round;stroke-miterlimit:10" />
      <path
         id="path3795"
         d="m 149.3,428.8 c 0,0 -30.6,-18.5 -57.3,10.4 -15.1,20.6 -19.1,43.6 -19.1,43.6 l 23.5,-13.9 3.9,26.3 18.3,-15 10.4,21.1 c 0,0 9.7,-34.1 19,-31.7 9.4,2.3 15.3,-28.6 1.3,-40.8 z"
         class="st3"
         inkscape:connector-curvature="0"
         style="fill:#ffffff;stroke:#036994;stroke-width:14.47340012;stroke-linecap:round;stroke-linejoin:round;stroke-miterlimit:10" />
      <path
         id="path3797"
         d="m 647.6,389.2 c 0,0 -15.9,-34.1 -41.2,-30.8 -25.4,3.4 -9.4,19.3 -9.4,19.3 0,0 -24.8,6 -9.8,20.6 15,14.6 -17,5.3 -4.9,17.7 12.1,12.4 19.2,23.3 41,20.2 -0.1,0.1 35.9,-8.2 24.3,-47 z"
         class="st3"
         inkscape:connector-curvature="0"
         style="fill:#ffffff;stroke:#036994;stroke-width:14.47340012;stroke-linecap:round;stroke-linejoin:round;stroke-miterlimit:10" />
      <path
         id="path3799"
         d="m 742.1,226.3 c 8.8,-22.8 22.9,-53.1 23,-53.4 1.4,-3.1 0.1,-6.7 -3,-8.1 -3.1,-1.4 -6.7,-0.1 -8.1,3 -0.1,0.2 -6.9,14.8 -14,31.4 L 729.7,179 c -1.5,-3 -5.2,-4.2 -8.2,-2.7 -3,1.5 -4.2,5.2 -2.7,8.2 l 14.7,28.8 c 0.1,0.2 0.2,0.4 0.4,0.6 -1.1,2.7 -2.2,5.4 -3.2,8 -6.3,16.3 -7.9,26.7 -8.2,32.7 l -32.9,38 -4.4,-25.9 c -0.6,-3.3 -3.8,-5.6 -7.1,-5 -3.3,0.6 -5.6,3.7 -5,7.1 l 6.1,35.8 -49.8,57.6 c -1.1,1.3 -1.6,2.9 -1.5,4.6 0.2,1.7 1,3.2 2.3,4.2 l 6.7,5.3 c 1.3,1 2.9,1.5 4.5,1.3 1.6,-0.2 3.1,-1 4.1,-2.3 L 731.6,265 764.3,248.7 c 3,-1.5 4.3,-5.2 2.8,-8.2 -1.5,-3 -5.2,-4.3 -8.2,-2.8 l -22.7,11.3 -0.7,-0.5 c 0.9,-5.1 2.8,-12.4 6.6,-22.2 z"
         class="st1"
         inkscape:connector-curvature="0"
         style="fill:#036994" />
      <path
         id="path3801"
         d="m 587.3,421.3 -10.8,14.9 c -1.1,1.3 -1.6,2.9 -1.5,4.6 0.2,1.7 1,3.2 2.3,4.2 l 6.7,5.3 c 1.3,1 2.9,1.5 4.5,1.3 1.6,-0.2 3.1,-1 4.1,-2.3 l 13.8,-17.6 h -11.6 z"
         class="st1"
         inkscape:connector-curvature="0"
         style="fill:#036994" />
    </g>
    <path
       style="fill:none;stroke-width:0.71428573"
       d="m 281.46355,404.17378 c -5.64381,-1.4023 -9.9956,-5.29757 -13.32515,-11.9273 -2.50392,-4.98572 -6.88684,-5.03509 -9.40153,-0.10587 -0.79614,1.56056 -2.56129,4.0702 -3.92257,5.57695 -7.42002,8.21308 -21.88899,7.44622 -27.95616,-1.48168 -2.85257,-4.19759 -4.97544,-6.32225 -6.31693,-6.32225 -0.63835,0 -3.00359,1.91885 -5.25609,4.2641 -2.61164,2.7192 -5.63186,4.98094 -8.3361,6.24263 -3.70587,1.72902 -5.09642,1.97726 -11.02638,1.96845 -7.26752,-0.0108 -10.8046,-1.09914 -16.61819,-5.11335 l -2.68961,-1.85714 3.7783,-1.53561 c 4.34066,-1.76418 9.31381,-5.05731 12.08869,-8.0049 2.4243,-2.57519 6.76194,-9.76722 7.88739,-13.07768 0.63495,-1.86769 0.97056,-20.65423 1.28293,-71.81508 0.41062,-67.2523 0.46753,-69.48034 1.93891,-75.91745 7.51101,-32.85957 26.15179,-57.17335 53.04587,-69.18942 49.52657,-22.12812 105.2581,9.97946 117.79964,67.86574 2.44908,11.30391 2.89243,24.14878 2.91253,84.38399 0.0206,61.7167 -0.0562,60.37611 3.90627,68.17596 2.50906,4.93889 8.99936,11.45671 13.86203,13.92081 l 3.76095,1.90582 -1.65642,1.29338 c -5.53563,4.32238 -13.72138,6.30579 -20.75835,5.02974 -8.2632,-1.4984 -11.72123,-3.83672 -19.92296,-13.4719 -3.39127,-3.98398 -6.39795,-2.75282 -8.72923,3.57438 -2.82651,7.67129 -10.01469,12.77958 -17.96018,12.76343 -6.90293,-0.014 -12.58212,-3.32852 -16.55279,-9.66055 -3.58073,-5.71019 -7.04202,-5.21702 -10.22733,1.45721 -2.2589,4.73309 -4.77836,7.35224 -9.28306,9.65037 -3.26808,1.66725 -8.756,2.29387 -12.32448,1.40722 z m 24.45909,-126.78299 c 7.33905,-1.19557 17.47989,-4.06937 22.02459,-6.24151 2.64576,-1.26455 3.37999,-2.00651 3.56274,-3.60028 0.27889,-2.43228 -0.93492,-4.06395 -3.02321,-4.06395 -0.85067,0 -4.38073,0.98838 -7.84458,2.1964 -10.64945,3.714 -19.36049,5.12425 -31.8624,5.15825 -12.8984,0.0351 -21.56573,-1.2693 -32.76943,-4.93165 -4.07677,-1.33265 -8.13562,-2.423 -9.01969,-2.423 -2.14491,0 -3.36547,1.60845 -3.08392,4.06395 0.29803,2.59918 4.26801,4.55119 14.96286,7.3571 15.61225,4.09604 31.88647,4.95542 47.05304,2.48469 z m -36.97869,-34.79694 c 9.00955,-4.12471 14.12673,-11.54575 14.69175,-21.30635 0.37258,-6.43599 -0.87466,-11.27393 -4.11802,-15.97343 l -2.00174,-2.90044 -13.29941,-3.50009 -13.29943,-3.5001 -3.0015,1.35349 c -4.06516,1.83314 -9.90007,7.72135 -11.96595,12.07527 -2.48848,5.24457 -2.84806,14.27906 -0.786,19.74792 1.69803,4.50338 6.06181,9.88064 10.07356,12.41316 6.84097,4.3185 16.354,4.95677 23.70674,1.59057 z m 59.27515,-0.11488 c 4.33949,-2.05291 9.63334,-7.22637 11.8403,-11.57103 4.81915,-9.48705 3.14964,-20.50677 -4.3374,-28.62925 -2.98425,-3.23753 -8.67712,-6.66366 -11.02562,-6.63552 -3.08607,0.037 -26.11748,7.121 -27.09932,8.33525 -0.57476,0.71079 -1.90984,3.06021 -2.96686,5.22092 -1.65291,3.37882 -1.92185,4.82817 -1.92185,10.35714 0,5.43235 0.28793,7.04243 1.85794,10.38974 3.27691,6.98644 8.45405,11.55308 15.84638,13.97772 4.63907,1.52159 12.96357,0.84606 17.80643,-1.44497 z"
       id="path3823"
       inkscape:connector-curvature="0"
       transform="matrix(0.26458333,0,0,0.26458333,0,172.9104)" />
    <path
       style="fill:none;stroke-width:0.76335877"
       d="m 279.99562,403.6432 c -4.33446,-1.33474 -9.24111,-5.93167 -11.57229,-10.84181 -1.62072,-3.4137 -1.88378,-3.61419 -4.74221,-3.61419 -2.61623,0 -3.23532,0.34625 -4.56881,2.5552 -4.84687,8.02903 -10.261,11.57742 -17.6232,11.55018 -7.23753,-0.0268 -12.44035,-3.14391 -16.85425,-10.09774 -2.67476,-4.21392 -5.20505,-3.97025 -9.30872,0.89647 -8.13497,9.64758 -23.99787,11.3448 -35.03822,3.74885 l -3.32864,-2.29017 5.41996,-2.59744 c 6.87802,-3.29621 12.641,-8.97749 15.97307,-15.74664 3.62275,-7.35965 3.87208,-12.78493 3.81708,-83.05687 -0.0449,-57.42039 0.0336,-61.09954 1.45854,-68.35058 3.98069,-20.25595 13.07568,-37.7424 26.8165,-51.55868 7.57048,-7.61206 13.95309,-12.29993 22.66579,-16.64749 13.49196,-6.73235 23.93748,-8.9064 39.77527,-8.2785 8.25392,0.32723 11.94731,0.84812 17.35189,2.44722 14.77811,4.3725 26.5982,11.37089 37.426,22.15902 13.4638,13.41447 22.51966,30.51777 27.20196,51.37481 1.61617,7.19912 1.6752,9.26102 2.13517,74.57939 0.51459,73.07352 0.31975,69.95069 4.8464,77.67483 2.43314,4.15185 9.22866,10.59943 13.43096,12.74328 3.90117,1.99023 3.52083,2.80704 -2.73143,5.86599 -2.95158,1.44407 -5.80407,2.14868 -9.71451,2.39964 -10.11761,0.64931 -17.90886,-2.95203 -24.36075,-11.26022 -5.04738,-6.49958 -7.80147,-6.3199 -10.41916,0.67976 -3.61638,9.67009 -13.32607,15.38253 -22.19366,13.05703 -4.90323,-1.28586 -8.62189,-3.9752 -12.2069,-8.82805 -2.80188,-3.79276 -3.40371,-4.22719 -5.56581,-4.01762 -2.10052,0.2036 -2.74793,0.84657 -4.8484,4.81513 -2.88432,5.44954 -6.74086,9.00992 -11.52518,10.6401 -4.22125,1.43833 -7.04336,1.43811 -11.71645,-7.6e-4 z m 28.71924,-126.6634 c 8.44861,-1.779 19.75248,-5.48262 21.80411,-7.14393 1.31224,-1.06259 1.59118,-1.85082 1.20272,-3.3986 -0.88902,-3.54213 -2.69459,-3.78826 -9.51906,-1.29764 -11.31053,4.12783 -20.45098,5.62686 -34.09846,5.59215 -13.49166,-0.0344 -22.95725,-1.55484 -34.3785,-5.52246 -6.4115,-2.2273 -8.84968,-2.13844 -9.80744,0.35743 -0.77302,2.01447 0.184,4.05955 2.44614,5.22716 4.81107,2.48328 20.07089,6.26906 30.6711,7.60913 5.74687,0.72652 25.73457,-0.17145 31.67939,-1.42324 z m -42.35468,-33.2551 c 4.20874,-1.07135 9.58839,-4.88158 12.54745,-8.88695 3.69971,-5.0079 5.27865,-10.6266 4.81343,-17.12866 -0.4152,-5.80303 -3.42623,-12.98399 -6.18304,-14.74584 -0.90617,-0.57913 -7.28235,-2.51643 -14.16929,-4.30512 l -12.52169,-3.25215 -4.11872,2.15643 c -4.62803,2.42309 -8.4582,6.4984 -11.04306,11.74989 -2.63082,5.34483 -2.51945,14.93798 0.24178,20.82755 5.51092,11.7545 17.17301,16.96026 30.43314,13.58485 z m 55.38242,0.73992 c 8.54752,-1.56523 14.22275,-5.83764 18.4552,-13.89339 1.82677,-3.47693 2.09167,-4.84699 2.09781,-10.84967 0.006,-5.92833 -0.27569,-7.44584 -2.05514,-11.06871 -3.15405,-6.42144 -10.96719,-12.9771 -15.46633,-12.9771 -0.83631,0 -7.15681,1.60692 -14.04555,3.57094 l -12.52497,3.57093 -2.12234,3.34658 c -7.69372,12.13175 -2.98329,29.21605 9.96182,36.13062 1.48866,0.79516 7.64137,2.47708 10.73766,2.93528 0.23778,0.0352 2.47061,-0.30928 4.96184,-0.76548 z"
       id="path4047"
       inkscape:connector-curvature="0"
       transform="matrix(0.26458333,0,0,0.26458333,0,172.9104)" />
    <path
       style="fill:none;stroke-width:0.76335877"
       d="m 279.99562,403.6432 c -4.33446,-1.33474 -9.24111,-5.93167 -11.57229,-10.84181 -1.62072,-3.4137 -1.88378,-3.61419 -4.74221,-3.61419 -2.61623,0 -3.23532,0.34625 -4.56881,2.5552 -4.84687,8.02903 -10.261,11.57742 -17.6232,11.55018 -7.23753,-0.0268 -12.44035,-3.14391 -16.85425,-10.09774 -2.67476,-4.21392 -5.20505,-3.97025 -9.30872,0.89647 -8.13497,9.64758 -23.99787,11.3448 -35.03822,3.74885 l -3.32864,-2.29017 5.41996,-2.59744 c 6.87802,-3.29621 12.641,-8.97749 15.97307,-15.74664 3.62275,-7.35965 3.87208,-12.78493 3.81708,-83.05687 -0.0449,-57.42039 0.0336,-61.09954 1.45854,-68.35058 3.98069,-20.25595 13.07568,-37.7424 26.8165,-51.55868 7.57048,-7.61206 13.95309,-12.29993 22.66579,-16.64749 13.49196,-6.73235 23.93748,-8.9064 39.77527,-8.2785 8.25392,0.32723 11.94731,0.84812 17.35189,2.44722 14.77811,4.3725 26.5982,11.37089 37.426,22.15902 13.4638,13.41447 22.51966,30.51777 27.20196,51.37481 1.61617,7.19912 1.6752,9.26102 2.13517,74.57939 0.51459,73.07352 0.31975,69.95069 4.8464,77.67483 2.43314,4.15185 9.22866,10.59943 13.43096,12.74328 3.90117,1.99023 3.52083,2.80704 -2.73143,5.86599 -2.95158,1.44407 -5.80407,2.14868 -9.71451,2.39964 -10.11761,0.64931 -17.90886,-2.95203 -24.36075,-11.26022 -5.04738,-6.49958 -7.80147,-6.3199 -10.41916,0.67976 -3.61638,9.67009 -13.32607,15.38253 -22.19366,13.05703 -4.90323,-1.28586 -8.62189,-3.9752 -12.2069,-8.82805 -2.80188,-3.79276 -3.40371,-4.22719 -5.56581,-4.01762 -2.10052,0.2036 -2.74793,0.84657 -4.8484,4.81513 -2.88432,5.44954 -6.74086,9.00992 -11.52518,10.6401 -4.22125,1.43833 -7.04336,1.43811 -11.71645,-7.6e-4 z m 28.71924,-126.6634 c 8.44861,-1.779 19.75248,-5.48262 21.80411,-7.14393 1.31224,-1.06259 1.59118,-1.85082 1.20272,-3.3986 -0.88902,-3.54213 -2.69459,-3.78826 -9.51906,-1.29764 -11.31053,4.12783 -20.45098,5.62686 -34.09846,5.59215 -13.49166,-0.0344 -22.95725,-1.55484 -34.3785,-5.52246 -6.4115,-2.2273 -8.84968,-2.13844 -9.80744,0.35743 -0.77302,2.01447 0.184,4.05955 2.44614,5.22716 4.81107,2.48328 20.07089,6.26906 30.6711,7.60913 5.74687,0.72652 25.73457,-0.17145 31.67939,-1.42324 z m -42.35468,-33.2551 c 4.20874,-1.07135 9.58839,-4.88158 12.54745,-8.88695 3.69971,-5.0079 5.27865,-10.6266 4.81343,-17.12866 -0.4152,-5.80303 -3.42623,-12.98399 -6.18304,-14.74584 -0.90617,-0.57913 -7.28235,-2.51643 -14.16929,-4.30512 l -12.52169,-3.25215 -4.11872,2.15643 c -4.62803,2.42309 -8.4582,6.4984 -11.04306,11.74989 -2.63082,5.34483 -2.51945,14.93798 0.24178,20.82755 5.51092,11.7545 17.17301,16.96026 30.43314,13.58485 z m 55.38242,0.73992 c 8.54752,-1.56523 14.22275,-5.83764 18.4552,-13.89339 1.82677,-3.47693 2.09167,-4.84699 2.09781,-10.84967 0.006,-5.92833 -0.27569,-7.44584 -2.05514,-11.06871 -3.15405,-6.42144 -10.96719,-12.9771 -15.46633,-12.9771 -0.83631,0 -7.15681,1.60692 -14.04555,3.57094 l -12.52497,3.57093 -2.12234,3.34658 c -7.69372,12.13175 -2.98329,29.21605 9.96182,36.13062 1.48866,0.79516 7.64137,2.47708 10.73766,2.93528 0.23778,0.0352 2.47061,-0.30928 4.96184,-0.76548 z"
       id="path4049"
       inkscape:connector-curvature="0"
       transform="matrix(0.26458333,0,0,0.26458333,0,172.9104)" />
    <path
       style="fill:none;stroke-width:0.76335877"
       d="m 279.99562,403.6432 c -4.33446,-1.33474 -9.24111,-5.93167 -11.57229,-10.84181 -1.62072,-3.4137 -1.88378,-3.61419 -4.74221,-3.61419 -2.61623,0 -3.23532,0.34625 -4.56881,2.5552 -4.84687,8.02903 -10.261,11.57742 -17.6232,11.55018 -7.23753,-0.0268 -12.44035,-3.14391 -16.85425,-10.09774 -2.67476,-4.21392 -5.20505,-3.97025 -9.30872,0.89647 -8.13497,9.64758 -23.99787,11.3448 -35.03822,3.74885 l -3.32864,-2.29017 5.41996,-2.59744 c 6.87802,-3.29621 12.641,-8.97749 15.97307,-15.74664 3.62275,-7.35965 3.87208,-12.78493 3.81708,-83.05687 -0.0449,-57.42039 0.0336,-61.09954 1.45854,-68.35058 3.98069,-20.25595 13.07568,-37.7424 26.8165,-51.55868 7.57048,-7.61206 13.95309,-12.29993 22.66579,-16.64749 13.49196,-6.73235 23.93748,-8.9064 39.77527,-8.2785 8.25392,0.32723 11.94731,0.84812 17.35189,2.44722 14.77811,4.3725 26.5982,11.37089 37.426,22.15902 13.4638,13.41447 22.51966,30.51777 27.20196,51.37481 1.61617,7.19912 1.6752,9.26102 2.13517,74.57939 0.51459,73.07352 0.31975,69.95069 4.8464,77.67483 2.43314,4.15185 9.22866,10.59943 13.43096,12.74328 3.90117,1.99023 3.52083,2.80704 -2.73143,5.86599 -2.95158,1.44407 -5.80407,2.14868 -9.71451,2.39964 -10.11761,0.64931 -17.90886,-2.95203 -24.36075,-11.26022 -5.04738,-6.49958 -7.80147,-6.3199 -10.41916,0.67976 -3.61638,9.67009 -13.32607,15.38253 -22.19366,13.05703 -4.90323,-1.28586 -8.62189,-3.9752 -12.2069,-8.82805 -2.80188,-3.79276 -3.40371,-4.22719 -5.56581,-4.01762 -2.10052,0.2036 -2.74793,0.84657 -4.8484,4.81513 -2.88432,5.44954 -6.74086,9.00992 -11.52518,10.6401 -4.22125,1.43833 -7.04336,1.43811 -11.71645,-7.6e-4 z m 28.71924,-126.6634 c 8.44861,-1.779 19.75248,-5.48262 21.80411,-7.14393 1.31224,-1.06259 1.59118,-1.85082 1.20272,-3.3986 -0.88902,-3.54213 -2.69459,-3.78826 -9.51906,-1.29764 -11.31053,4.12783 -20.45098,5.62686 -34.09846,5.59215 -13.49166,-0.0344 -22.95725,-1.55484 -34.3785,-5.52246 -6.4115,-2.2273 -8.84968,-2.13844 -9.80744,0.35743 -0.77302,2.01447 0.184,4.05955 2.44614,5.22716 4.81107,2.48328 20.07089,6.26906 30.6711,7.60913 5.74687,0.72652 25.73457,-0.17145 31.67939,-1.42324 z m -42.35468,-33.2551 c 4.20874,-1.07135 9.58839,-4.88158 12.54745,-8.88695 3.69971,-5.0079 5.27865,-10.6266 4.81343,-17.12866 -0.4152,-5.80303 -3.42623,-12.98399 -6.18304,-14.74584 -0.90617,-0.57913 -7.28235,-2.51643 -14.16929,-4.30512 l -12.52169,-3.25215 -4.11872,2.15643 c -4.62803,2.42309 -8.4582,6.4984 -11.04306,11.74989 -2.63082,5.34483 -2.51945,14.93798 0.24178,20.82755 5.51092,11.7545 17.17301,16.96026 30.43314,13.58485 z m 55.38242,0.73992 c 8.54752,-1.56523 14.22275,-5.83764 18.4552,-13.89339 1.82677,-3.47693 2.09167,-4.84699 2.09781,-10.84967 0.006,-5.92833 -0.27569,-7.44584 -2.05514,-11.06871 -3.15405,-6.42144 -10.96719,-12.9771 -15.46633,-12.9771 -0.83631,0 -7.15681,1.60692 -14.04555,3.57094 l -12.52497,3.57093 -2.12234,3.34658 c -7.69372,12.13175 -2.98329,29.21605 9.96182,36.13062 1.48866,0.79516 7.64137,2.47708 10.73766,2.93528 0.23778,0.0352 2.47061,-0.30928 4.96184,-0.76548 z"
       id="path4051"
       inkscape:connector-curvature="0"
       transform="matrix(0.26458333,0,0,0.26458333,0,172.9104)" />
    <path
       style="fill:none;stroke-width:0.76335877"
       d="m 253.62051,243.76509 c -4.34627,-0.90251 -7.43354,-2.60566 -11.47348,-6.32954 -9.12537,-8.41147 -10.42443,-22.15453 -3.06308,-32.40503 2.40133,-3.34379 7.93826,-7.54657 10.93215,-8.29799 0.90065,-0.22604 7.21578,1.04665 14.03362,2.82821 13.98428,3.65421 14.97778,4.29506 17.64571,11.38219 2.11718,5.62414 1.80376,14.09045 -0.712,19.23273 -4.84798,9.90941 -16.71143,15.80124 -27.36292,13.58943 z"
       id="path4053"
       inkscape:connector-curvature="0"
       transform="matrix(0.26458333,0,0,0.26458333,0,172.9104)" />
    <path
       style="fill:none;stroke-width:0.76335877"
       d="m 253.62051,243.76509 c -4.34627,-0.90251 -7.43354,-2.60566 -11.47348,-6.32954 -9.12537,-8.41147 -10.42443,-22.15453 -3.06308,-32.40503 2.40133,-3.34379 7.93826,-7.54657 10.93215,-8.29799 0.90065,-0.22604 7.21578,1.04665 14.03362,2.82821 13.98428,3.65421 14.97778,4.29506 17.64571,11.38219 2.11718,5.62414 1.80376,14.09045 -0.712,19.23273 -4.84798,9.90941 -16.71143,15.80124 -27.36292,13.58943 z"
       id="path4055"
       inkscape:connector-curvature="0"
       transform="matrix(0.26458333,0,0,0.26458333,0,172.9104)" />
    <path
       style="fill:none;stroke-width:0.19083969"
       d="m 284.2428,404.83738 c -4.09384,-0.41168 -6.89087,-1.56069 -10.19944,-4.18989 -2.42173,-1.92447 -4.65115,-4.94155 -5.93506,-8.03195 -0.91342,-2.1986 -1.43138,-2.91061 -2.49032,-3.42322 -1.59042,-0.76993 -3.59545,-0.51038 -5.13626,0.66485 -0.39091,0.29816 -0.96746,1.2087 -1.68307,2.65801 -2.83479,5.74136 -7.26811,9.42361 -13.05312,10.8417 -2.40998,0.59078 -6.54402,0.58279 -8.83098,-0.017 -1.97576,-0.51822 -4.78249,-1.81811 -6.36479,-2.94776 -1.68057,-1.19981 -3.85672,-3.55649 -5.22341,-5.6567 -2.36169,-3.62928 -2.81249,-4.07376 -4.36818,-4.30706 -1.9487,-0.29222 -3.7732,0.84521 -4.48436,2.79565 -0.34549,0.94754 -0.67421,1.38492 -1.9254,2.56196 -4.07598,3.83432 -9.28787,6.22456 -15.37241,7.04996 l -0.81107,0.11002 v -12.99837 -12.9984 l 0.84676,-2.1279 c 0.86318,-2.16918 1.43649,-4.17181 1.97503,-6.89891 0.2698,-1.36623 0.31363,-8.39817 0.41696,-66.88932 l 0.11547,-65.36259 0.42591,-2.95802 c 0.56453,-3.92077 0.90165,-5.85634 1.57885,-9.06488 4.14118,-19.62086 13.71851,-37.30958 27.48854,-50.76962 7.04613,-6.88751 13.84506,-11.72239 22.40058,-15.92958 11.10133,-5.45909 21.5338,-8.05561 33.49236,-8.33585 8.37663,-0.19629 15.56876,0.67798 23.06457,2.80374 14.23418,4.03671 26.2185,10.95062 36.75711,21.20566 16.7393,16.28889 27.24023,38.64534 29.68203,63.19299 0.58525,5.8835 0.6321,10.11221 0.75849,68.46243 0.14043,64.82643 0.0594,60.32576 1.16309,64.59452 2.55095,9.86626 9.11766,17.64616 18.79721,22.26998 l 2.05621,0.98223 -0.55729,0.4497 c -3.88104,3.13183 -7.75243,5.01731 -12.3534,6.01653 -1.62409,0.35271 -2.55732,0.42347 -5.66573,0.42963 -3.21296,0.006 -3.99202,-0.0531 -5.70238,-0.43521 -3.71679,-0.83034 -6.83366,-2.14513 -9.94647,-4.1957 -2.25511,-1.48556 -5.47719,-4.76748 -7.15436,-7.28725 -0.73357,-1.1021 -1.72116,-2.39266 -2.19466,-2.86789 -1.40146,-1.40658 -3.02588,-1.68843 -4.75762,-0.82547 -1.2362,0.61603 -1.99145,1.70398 -2.27083,3.27118 -0.27966,1.5688 -2.24455,5.58143 -3.63356,7.42036 -2.97867,3.94349 -7.54991,6.77661 -12.12487,7.51462 -2.27264,0.36662 -6.13061,0.14714 -8.1863,-0.46574 -3.02683,-0.90239 -5.65867,-2.44382 -8.04836,-4.71378 -1.30145,-1.23626 -3.80601,-4.53912 -4.93904,-6.51332 -1.098,-1.91317 -3.59479,-2.55306 -5.53201,-1.41777 -0.9913,0.58095 -1.57087,1.44431 -2.32682,3.46622 -1.08527,2.90271 -2.73198,5.4558 -4.86075,7.53617 -2.97044,2.90288 -7.20241,4.94835 -10.87069,5.25421 -0.68694,0.0573 -1.54956,0.13037 -1.91693,0.16245 -0.36736,0.0321 -1.31202,-0.006 -2.09923,-0.0856 z m 9.92366,-126.32913 c 6.01919,-0.33476 11.51616,-1.07304 17.27099,-2.3196 7.27118,-1.57502 17.72576,-5.15605 19.21324,-6.58115 0.78598,-0.75301 1.19952,-2.2675 0.91309,-3.34393 -0.44113,-1.65778 -1.86431,-2.81232 -3.4783,-2.82174 -0.43152,-0.003 -1.80327,0.42421 -3.43512,1.0686 -8.14341,3.21568 -16.15356,5.20215 -25.42665,6.30565 -3.61626,0.43034 -16.72606,0.49621 -20.51526,0.10308 -10.27768,-1.06631 -19.66198,-3.23446 -27.92904,-6.45272 -1.5082,-0.58712 -2.94198,-1.027 -3.3397,-1.02461 -1.59284,0.01 -3.0181,1.173 -3.45683,2.82174 -0.28643,1.07643 0.12712,2.59092 0.91309,3.34393 0.7481,0.71673 3.40822,1.84298 7.76286,3.28668 13.17824,4.369 27.95599,6.36775 41.50763,5.61407 z m -30.38124,-34.33636 c 9.82753,-2.00956 17.40492,-9.58367 19.53398,-19.52553 0.58735,-2.74273 0.59282,-7.26532 0.012,-9.90772 -0.82294,-3.74371 -2.14987,-6.80288 -4.1965,-9.67477 -1.4729,-2.0668 -1.87086,-2.43856 -2.87788,-2.68835 -0.48841,-0.12115 -5.01017,-1.32465 -10.04833,-2.67445 -5.03817,-1.3498 -10.46248,-2.79321 -12.05403,-3.20759 l -2.89372,-0.7534 -1.59101,0.59869 c -7.87673,2.96397 -13.72985,9.97355 -15.55271,18.62559 -0.47376,2.24871 -0.47376,7.10244 0,9.35115 1.12109,5.32115 3.53089,9.72726 7.31355,13.3722 4.07382,3.9255 8.89255,6.15872 14.94967,6.92837 1.46868,0.18662 5.50385,-0.0554 7.40502,-0.44419 z m 58.5301,0.0894 c 4.91145,-1.01845 9.207,-3.29053 12.61386,-6.67193 6.43362,-6.38557 9.00927,-15.28021 6.93707,-23.95618 -0.74705,-3.1278 -2.48108,-6.76514 -4.43681,-9.30676 -1.27358,-1.65511 -3.61751,-3.89692 -5.42282,-5.18655 -1.60265,-1.14486 -4.30694,-2.54925 -6.13033,-3.18359 l -1.01918,-0.35457 -1.84342,0.49166 c -1.01387,0.27041 -6.82433,1.88167 -12.91211,3.58058 -11.04022,3.08098 -11.07036,3.09076 -11.70958,3.79844 -1.59812,1.76928 -3.50546,5.09569 -4.48474,7.8214 -0.96379,2.68264 -1.33467,5.00184 -1.33467,8.34612 0,4.39065 0.72074,7.51446 2.59751,11.25803 1.66121,3.3136 4.41191,6.60533 7.40413,8.86044 2.91008,2.1932 7.38866,4.08672 11.05788,4.6752 2.25273,0.3613 6.51812,0.27666 8.68321,-0.17229 z"
       id="path4057"
       inkscape:connector-curvature="0"
       transform="matrix(0.26458333,0,0,0.26458333,0,172.9104)" />
    <path
       style="fill:none;stroke-width:0.19083969"
       d="m 284.2428,404.83738 c -4.09384,-0.41168 -6.89087,-1.56069 -10.19944,-4.18989 -2.42173,-1.92447 -4.65115,-4.94155 -5.93506,-8.03195 -0.91342,-2.1986 -1.43138,-2.91061 -2.49032,-3.42322 -1.59042,-0.76993 -3.59545,-0.51038 -5.13626,0.66485 -0.39091,0.29816 -0.96746,1.2087 -1.68307,2.65801 -2.83479,5.74136 -7.26811,9.42361 -13.05312,10.8417 -2.40998,0.59078 -6.54402,0.58279 -8.83098,-0.017 -1.97576,-0.51822 -4.78249,-1.81811 -6.36479,-2.94776 -1.68057,-1.19981 -3.85672,-3.55649 -5.22341,-5.6567 -2.36169,-3.62928 -2.81249,-4.07376 -4.36818,-4.30706 -1.9487,-0.29222 -3.7732,0.84521 -4.48436,2.79565 -0.34549,0.94754 -0.67421,1.38492 -1.9254,2.56196 -4.07598,3.83432 -9.28787,6.22456 -15.37241,7.04996 l -0.81107,0.11002 v -12.99837 -12.9984 l 0.84676,-2.1279 c 0.86318,-2.16918 1.43649,-4.17181 1.97503,-6.89891 0.2698,-1.36623 0.31363,-8.39817 0.41696,-66.88932 l 0.11547,-65.36259 0.42591,-2.95802 c 0.56453,-3.92077 0.90165,-5.85634 1.57885,-9.06488 4.14118,-19.62086 13.71851,-37.30958 27.48854,-50.76962 7.04613,-6.88751 13.84506,-11.72239 22.40058,-15.92958 11.10133,-5.45909 21.5338,-8.05561 33.49236,-8.33585 8.37663,-0.19629 15.56876,0.67798 23.06457,2.80374 14.23418,4.03671 26.2185,10.95062 36.75711,21.20566 16.7393,16.28889 27.24023,38.64534 29.68203,63.19299 0.58525,5.8835 0.6321,10.11221 0.75849,68.46243 0.14043,64.82643 0.0594,60.32576 1.16309,64.59452 2.55095,9.86626 9.11766,17.64616 18.79721,22.26998 l 2.05621,0.98223 -0.55729,0.4497 c -3.88104,3.13183 -7.75243,5.01731 -12.3534,6.01653 -1.62409,0.35271 -2.55732,0.42347 -5.66573,0.42963 -3.21296,0.006 -3.99202,-0.0531 -5.70238,-0.43521 -3.71679,-0.83034 -6.83366,-2.14513 -9.94647,-4.1957 -2.25511,-1.48556 -5.47719,-4.76748 -7.15436,-7.28725 -0.73357,-1.1021 -1.72116,-2.39266 -2.19466,-2.86789 -1.40146,-1.40658 -3.02588,-1.68843 -4.75762,-0.82547 -1.2362,0.61603 -1.99145,1.70398 -2.27083,3.27118 -0.27966,1.5688 -2.24455,5.58143 -3.63356,7.42036 -2.97867,3.94349 -7.54991,6.77661 -12.12487,7.51462 -2.27264,0.36662 -6.13061,0.14714 -8.1863,-0.46574 -3.02683,-0.90239 -5.65867,-2.44382 -8.04836,-4.71378 -1.30145,-1.23626 -3.80601,-4.53912 -4.93904,-6.51332 -1.098,-1.91317 -3.59479,-2.55306 -5.53201,-1.41777 -0.9913,0.58095 -1.57087,1.44431 -2.32682,3.46622 -1.08527,2.90271 -2.73198,5.4558 -4.86075,7.53617 -2.97044,2.90288 -7.20241,4.94835 -10.87069,5.25421 -0.68694,0.0573 -1.54956,0.13037 -1.91693,0.16245 -0.36736,0.0321 -1.31202,-0.006 -2.09923,-0.0856 z m 9.92366,-126.32913 c 6.01919,-0.33476 11.51616,-1.07304 17.27099,-2.3196 7.27118,-1.57502 17.72576,-5.15605 19.21324,-6.58115 0.78598,-0.75301 1.19952,-2.2675 0.91309,-3.34393 -0.44113,-1.65778 -1.86431,-2.81232 -3.4783,-2.82174 -0.43152,-0.003 -1.80327,0.42421 -3.43512,1.0686 -8.14341,3.21568 -16.15356,5.20215 -25.42665,6.30565 -3.61626,0.43034 -16.72606,0.49621 -20.51526,0.10308 -10.27768,-1.06631 -19.66198,-3.23446 -27.92904,-6.45272 -1.5082,-0.58712 -2.94198,-1.027 -3.3397,-1.02461 -1.59284,0.01 -3.0181,1.173 -3.45683,2.82174 -0.28643,1.07643 0.12712,2.59092 0.91309,3.34393 0.7481,0.71673 3.40822,1.84298 7.76286,3.28668 13.17824,4.369 27.95599,6.36775 41.50763,5.61407 z m -30.38124,-34.33636 c 9.82753,-2.00956 17.40492,-9.58367 19.53398,-19.52553 0.58735,-2.74273 0.59282,-7.26532 0.012,-9.90772 -0.82294,-3.74371 -2.14987,-6.80288 -4.1965,-9.67477 -1.4729,-2.0668 -1.87086,-2.43856 -2.87788,-2.68835 -0.48841,-0.12115 -5.01017,-1.32465 -10.04833,-2.67445 -5.03817,-1.3498 -10.46248,-2.79321 -12.05403,-3.20759 l -2.89372,-0.7534 -1.59101,0.59869 c -7.87673,2.96397 -13.72985,9.97355 -15.55271,18.62559 -0.47376,2.24871 -0.47376,7.10244 0,9.35115 1.12109,5.32115 3.53089,9.72726 7.31355,13.3722 4.07382,3.9255 8.89255,6.15872 14.94967,6.92837 1.46868,0.18662 5.50385,-0.0554 7.40502,-0.44419 z m 58.5301,0.0894 c 4.91145,-1.01845 9.207,-3.29053 12.61386,-6.67193 6.43362,-6.38557 9.00927,-15.28021 6.93707,-23.95618 -0.74705,-3.1278 -2.48108,-6.76514 -4.43681,-9.30676 -1.27358,-1.65511 -3.61751,-3.89692 -5.42282,-5.18655 -1.60265,-1.14486 -4.30694,-2.54925 -6.13033,-3.18359 l -1.01918,-0.35457 -1.84342,0.49166 c -1.01387,0.27041 -6.82433,1.88167 -12.91211,3.58058 -11.04022,3.08098 -11.07036,3.09076 -11.70958,3.79844 -1.59812,1.76928 -3.50546,5.09569 -4.48474,7.8214 -0.96379,2.68264 -1.33467,5.00184 -1.33467,8.34612 0,4.39065 0.72074,7.51446 2.59751,11.25803 1.66121,3.3136 4.41191,6.60533 7.40413,8.86044 2.91008,2.1932 7.38866,4.08672 11.05788,4.6752 2.25273,0.3613 6.51812,0.27666 8.68321,-0.17229 z"
       id="path4059"
       inkscape:connector-curvature="0"
       transform="matrix(0.26458333,0,0,0.26458333,0,172.9104)" />
    <path
       id="path4061"
       transform="matrix(0.26458333,0,0,0.26458333,0,172.9104)"
       style="fill:none;stroke-width:0.19083969"
       d="m 290.19336,148.58984 c -1.01297,-0.009 -2.04081,-8.4e-4 -3.08789,0.0234 -11.95856,0.28024 -22.39086,2.87685 -33.49219,8.33594 -8.55552,4.20719 -15.35426,9.04218 -22.40039,15.92969 -13.77003,13.46004 -23.3471,31.14867 -27.48828,50.76953 -0.6772,3.20854 -1.01555,5.14368 -1.58008,9.06445 l -0.42578,2.95703 -0.11523,65.36328 c -0.10333,58.49115 -0.14622,65.52245 -0.41602,66.88868 -0.53854,2.72705 -1.11338,4.72925 -1.97656,6.89843 l -0.84571,2.12891 v 12.99805 12.99804 l 0.81055,-0.10937 c 6.08454,-0.8254 11.29707,-3.21646 15.37305,-7.05078 1.25119,-1.17704 1.58029,-1.61301 1.92578,-2.56055 0.71116,-1.95044 2.53567,-3.0891 4.48437,-2.79688 1.55569,0.2333 2.0055,0.67932 4.36719,4.3086 1.36669,2.10021 3.54209,4.45644 5.22266,5.65625 1.5823,1.12965 4.38947,2.42904 6.36523,2.94726 2.28696,0.59979 6.42205,0.60828 8.83203,0.0176 5.78501,-1.41809 10.21795,-5.10044 13.05274,-10.8418 0.71561,-1.44926 1.29268,-2.36004 1.68359,-2.6582 1.54081,-1.17523 3.54435,-1.43594 5.13477,-0.66601 1.05894,0.51261 1.57681,1.22522 2.49023,3.42382 1.28391,3.0904 3.51382,6.10874 5.93555,8.03321 3.30857,2.6292 6.10538,3.77777 10.19922,4.18945 0.78721,0.0796 1.73225,0.1182 2.09961,0.0859 0.36737,-0.0321 1.23103,-0.10676 1.91797,-0.16406 3.66828,-0.30586 7.8987,-2.35103 10.86914,-5.25391 2.12877,-2.08037 3.77605,-4.63245 4.86132,-7.53516 0.75595,-2.02191 1.33488,-2.88584 2.32618,-3.46679 1.93722,-1.13529 4.4352,-0.4952 5.5332,1.41797 1.13303,1.97415 3.638,5.27741 4.93945,6.51367 2.38969,2.26996 5.02005,3.8105 8.04688,4.71289 2.05569,0.61288 5.91486,0.83341 8.1875,0.46679 4.57496,-0.73801 9.14633,-3.57213 12.125,-7.51562 1.38901,-1.83893 3.35315,-5.85112 3.63281,-7.41992 0.27938,-1.5672 1.03528,-2.65546 2.27148,-3.27149 1.73174,-0.86296 3.35636,-0.5804 4.75782,0.82618 0.4735,0.47518 1.45979,1.76508 2.19336,2.86718 1.67717,2.51977 4.89918,5.80155 7.15429,7.28711 3.11281,2.05057 6.23048,3.36497 9.94727,4.19531 1.71036,0.38211 2.49016,0.44155 5.70312,0.43555 3.10841,-0.006 4.03998,-0.077 5.66407,-0.42969 4.60097,-0.99922 8.47247,-2.88379 12.35351,-6.01562 l 0.5586,-0.44922 -2.05665,-0.98242 c -9.6795,-4.62382 -16.24592,-12.40523 -18.79687,-22.27149 -1.10369,-4.26876 -1.02363,0.23268 -1.16406,-64.59375 -0.12639,-58.35022 -0.17261,-62.57939 -0.75781,-68.46289 -2.4418,-24.54765 -12.94235,-46.90447 -29.68165,-63.19336 -10.53861,-10.25504 -22.52363,-17.16836 -36.75781,-21.20507 -6.55883,-1.86004 -12.88577,-2.76127 -19.97656,-2.82618 z m 34.66406,47.01172 1.01953,0.35547 c 1.82339,0.63434 4.52626,2.03878 6.12891,3.18359 1.80531,1.28963 4.15025,3.53044 5.42383,5.18555 1.95573,2.54162 3.69045,6.17884 4.4375,9.30664 2.0722,8.67597 -0.50388,17.57146 -6.9375,23.95703 -3.40686,3.3814 -7.70379,5.65343 -12.61524,6.67188 -2.16509,0.44895 -6.42891,0.53317 -8.68164,0.17187 -0.7224,-0.11586 -1.48099,-0.2945 -2.24804,-0.5039 -0.69553,0.98859 -1.42122,2.03785 -2.08204,2.96289 -3.61499,5.06041 -7.44629,9.96448 -11.10937,14.99023 -3.14357,4.31294 -5.11804,7.03658 -6.70508,9.25196 3.28725,-0.044 6.27805,-0.14481 7.73633,-0.31836 9.27309,-1.1035 17.28237,-3.09096 25.42578,-6.30664 1.63185,-0.64439 3.00403,-1.07136 3.43555,-1.06836 1.61399,0.009 3.03738,1.16448 3.47851,2.82226 0.28643,1.07643 -0.12808,2.59074 -0.91406,3.34375 -1.48748,1.4251 -11.94171,5.00701 -19.21289,6.58203 -5.75483,1.24656 -11.25229,1.9836 -17.27148,2.31836 -2.57463,0.1432 -5.19567,0.17767 -7.83985,0.12305 -0.96463,1.45679 -2.35707,3.55656 -3.85547,5.8418 -2.4267,6.85772 -4.93394,13.68866 -7.19726,20.5957 -0.38114,1.16312 -0.74574,2.29211 -1.10938,3.41992 0.35079,0.5147 0.72757,1.04178 1.09571,1.71094 1.40217,2.54876 1.08391,2.26259 1.47851,5.18945 -0.0375,0.33841 -0.0329,0.30857 -0.0586,0.55664 0.69172,0.38616 1.38103,0.77678 2.07422,1.16016 3.30359,1.82713 13.69829,7.53952 20.2207,11.16797 1.9181,0.0978 3.83872,0.14424 5.75977,0.0781 0.93434,-0.034 1.85134,-0.1533 2.77929,-0.24023 1.50597,0.008 -0.10869,-0.1075 -1.54687,2.07226 -0.12151,0.18407 0.14356,0.41814 0.21484,0.62696 1.22078,3.57577 1.47001,-5.65188 3.08984,-2.23828 0.90392,1.90491 0.65128,0.63297 -1.47265,3.3457 0.0228,-0.002 0.0455,-0.004 0.0684,-0.006 -0.0251,0.004 -0.092,0.0345 -0.0762,0.0156 0.003,-0.004 0.005,-0.006 0.008,-0.01 -0.68683,0.0641 -1.36941,0.13028 -2.05469,0.18359 10.17884,6.01383 6.84705,4.09603 19.63281,11.34375 3.52309,1.92216 8.73099,4.87604 12.65821,6.71289 7.77476,3.63644 -0.73473,-0.452 3.42578,1.22657 0.57527,0.23206 1.76472,0.94752 2.30468,1.26171 0.78384,0.75387 2.4986,1.08802 0.28711,0.6504 -3.70653,-0.73361 4.32226,4.32087 0.58399,3.77148 -0.42813,-0.0627 -0.8697,-0.0666 -1.28516,-0.1875 -0.33509,-0.0975 -1.26524,-0.77114 -1.50586,-0.93555 -0.36011,-0.20976 -0.72599,-0.40924 -1.08008,-0.6289 -0.12676,-0.0786 -0.22201,-0.21196 -0.36132,-0.26563 -3.50991,-1.34551 1.24329,1.0097 -4.08789,-1.48437 -3.95783,-1.85156 -9.27357,-4.86548 -12.82032,-6.80079 -14.07763,-7.98088 -6.87396,-3.81801 -21.60156,-12.50585 -0.67383,-0.38542 -2.80473,-1.55542 -4.01562,-2.23047 -1.76816,-0.10361 -3.53441,-0.23725 -5.29883,-0.37696 -2.31649,-0.18368 -8.73182,-0.65442 -11.10156,-0.98437 -4.1924,-0.58372 -8.32106,-1.57922 -12.25196,-3.125 -0.23391,1.46244 -0.44521,2.94367 -0.60156,4.47851 -0.27073,2.65781 0.0677,5.34234 0.10156,8.01368 0.37104,1.42817 0.63599,2.88892 1.11328,4.28515 0.54278,1.58778 1.87071,3.44342 2.48243,4.99219 0.6412,1.62342 1.35878,4.54156 1.58203,6.29492 0.1302,1.02244 0.11824,2.05888 0.17773,3.08789 0.0792,1.90515 0.0745,3.8123 -0.0117,5.7168 -0.0159,0.34809 -0.0602,0.70444 -0.043,1.05469 0.003,0.0302 0.005,0.0627 0.008,0.0937 0.3236,3.76456 -3.5991,4.01277 -3.8086,0.24023 -0.005,-0.0907 -0.0107,-0.18077 -0.0156,-0.27148 -0.009,-2.21035 0.2677,-4.424 0.0586,-6.63672 -0.0379,-0.85259 -0.0112,-1.7113 -0.11328,-2.5586 -0.13708,-1.13971 -0.79261,-4.17673 -1.23242,-5.28515 -0.36284,-0.91442 -0.91616,-1.74197 -1.3418,-2.62891 -2.06351,-4.29978 -1.35646,-2.80034 -2.67187,-8.35156 -0.014,-2.90672 -0.34391,-5.82955 -0.043,-8.7207 0.19298,-1.85397 0.46052,-3.6366 0.76172,-5.39258 -0.59531,-0.28379 -1.19467,-0.56026 -1.76172,-0.89649 -1.66074,-0.98468 -3.13044,-2.27025 -4.78125,-3.27148 -2.79685,-1.69629 -3.72053,-1.89464 -6.76172,-3.38086 -1.22091,-0.59664 -2.41619,-1.2405 -3.625,-1.86133 -6.67861,-3.67544 -0.43488,-0.19308 -5.93164,-3.37304 -1.23347,-0.71362 -3.18663,-1.72386 -4.36328,-2.59376 -0.56928,-0.4208 -2.03469,-1.94875 -2.49024,-2.41015 -1.82508,-1.84849 -1.00546,-3.53455 0.56055,-3.54688 0.71182,-0.006 1.5781,0.33414 2.41992,1.16211 v 0.002 c 0.35002,0.34431 1.70592,1.70193 2.08985,1.98046 0.44413,0.3224 0.94694,0.55646 1.42382,0.82813 0.74105,0.4221 1.4922,0.82498 2.23047,1.25195 5.49765,3.17942 -0.50805,-0.16588 5.89844,3.35547 1.17669,0.60374 2.34274,1.23039 3.53125,1.81055 3.14249,1.53388 3.8729,1.63322 6.83594,3.41992 1.76707,1.06556 3.34514,2.42452 5.11914,3.47852 0.1142,0.0679 0.23754,0.11878 0.35547,0.17968 0.48287,-2.22234 1.03629,-4.40913 1.65039,-6.58984 -1.20002,-0.66644 -2.39673,-1.33835 -3.60352,-1.99219 -3.77581,-2.04578 -7.60045,-4.00137 -11.40039,-6.00195 -3.06059,-1.77653 -6.16565,-3.47691 -9.18164,-5.32813 -2.26617,-1.39098 -4.47127,-2.882 -6.6582,-4.39453 -3.5924,-2.48454 -6.6074,-4.75258 -9.81446,-7.68164 -2.01146,-1.83711 -4.29253,-4.36387 -6.16797,-6.38086 -1.76881,-1.90238 -0.90326,-3.59898 0.6504,-3.57812 0.7062,0.009 1.55585,0.37478 2.36328,1.23633 1.72297,1.83847 4.03884,4.3691 5.85351,6.02343 3.00734,2.74164 6.00401,4.98002 9.36524,7.29883 2.13905,1.47572 4.29418,2.93097 6.50976,4.28906 2.95494,1.81131 5.99753,3.47672 8.9961,5.21485 3.75413,1.97525 7.53185,3.90517 11.26171,5.92578 0.98057,0.5312 1.9519,1.07924 2.92774,1.61914 0.30645,-0.99952 0.65781,-2.05115 0.98047,-3.06445 -0.46934,-1.51346 -0.84369,-3.11489 -0.70703,-4.68946 0.54811,-6.31525 4.32294,-11.91785 7.05664,-17.32031 1.13721,-1.72518 1.70557,-2.59637 2.55859,-3.89648 0.51872,-1.46831 1.03998,-2.93612 1.54688,-4.40821 -9.45344,-0.67708 -19.04234,-2.53724 -27.90821,-5.47656 -4.35464,-1.4437 -7.01362,-2.57038 -7.76172,-3.28711 -0.78597,-0.75301 -1.20049,-2.26732 -0.91406,-3.34375 0.43873,-1.64874 1.86419,-2.81226 3.45703,-2.82226 0.39772,-0.002 1.83165,0.43827 3.33985,1.02539 8.26706,3.21826 17.652,5.38681 27.92968,6.45312 0.94169,0.0977 2.46138,0.16657 4.26563,0.20899 1.29232,-4.0593 2.49366,-8.14835 3.51562,-12.29297 0.69017,-3.34137 1.51849,-6.65844 2.07032,-10.02539 0.39193,-2.39135 0.54073,-4.81675 0.75586,-7.23047 0.16316,-1.83062 0.3108,-3.66338 0.3789,-5.5 0.14015,-3.77979 -0.0982,-7.57413 0,-11.35547 0.049,-1.88857 1.0263,-2.83203 1.98047,-2.83203 0.35565,-10e-6 0.7082,0.1323 1.00781,0.39453 -0.0699,-0.8399 -0.11132,-1.70952 -0.11132,-2.64649 0,-3.34423 0.37214,-5.66501 1.33593,-8.34765 0.97928,-2.72571 2.88626,-6.05103 4.48438,-7.82031 0.63922,-0.70768 0.66876,-0.71785 11.70898,-3.79883 6.08778,-1.69891 11.89824,-3.30967 12.91211,-3.58008 z m -73.59765,0.13867 2.89453,0.75391 c 1.59155,0.41438 7.01651,1.85723 12.05468,3.20703 5.03816,1.3498 9.55847,2.55268 10.04688,2.67383 1.00702,0.24979 1.40601,0.62265 2.87891,2.68945 2.04663,2.87189 3.37432,5.93012 4.19726,9.67383 0.58082,2.6424 0.5738,7.16547 -0.0137,9.9082 -2.12906,9.94186 -9.70567,17.51584 -19.5332,19.5254 -1.90117,0.38874 -5.93562,0.62997 -7.4043,0.44335 -6.05712,-0.76965 -10.87735,-3.00223 -14.95117,-6.92773 -3.78266,-3.64494 -6.19141,-8.04994 -7.3125,-13.37109 -0.47376,-2.24871 -0.47376,-7.10286 0,-9.35157 1.82286,-8.65204 7.676,-15.66298 15.55273,-18.62695 z m 42.23632,31.00782 c -7.6e-4,3.11041 0.13057,6.22599 0.0156,9.33203 -0.0711,1.92261 -0.21803,3.84324 -0.38672,5.75976 -0.21653,2.46017 -0.37198,4.93165 -0.76953,7.36914 -0.56936,3.491 -1.41762,6.92928 -2.12695,10.39454 -0.91812,3.75007 -1.98141,7.4543 -3.12696,11.13281 1.76517,-2.50472 3.88675,-5.44921 8.02539,-11.12695 3.6362,-4.98845 7.44001,-9.85468 11.0293,-14.87696 0.46623,-0.65237 0.99672,-1.42247 1.48633,-2.11523 -1.87678,-0.80787 -3.65793,-1.7964 -5.06836,-2.85938 -2.99222,-2.25511 -5.74309,-5.54577 -7.4043,-8.85937 -0.72161,-1.4394 -1.26926,-2.78705 -1.67383,-4.15039 z m 29.24414,54.65039 c 2.51312,-0.0567 2.82828,3.16403 -0.3789,3.96679 v 0.002 c -0.74707,0.18708 -1.49512,0.37372 -2.24219,0.56054 -0.62756,0.13267 -1.26022,0.24412 -1.88281,0.39844 -0.11937,0.0296 -0.23305,0.0777 -0.34766,0.12305 -0.0158,0.0751 -0.39871,0.13647 -0.30078,0.10547 0.10171,-0.031 0.20173,-0.0663 0.30078,-0.10547 0.002,-0.007 0.0183,-0.014 0.0117,-0.0215 -0.82126,-0.9349 -1.44913,-2.60522 -2.69336,-2.58398 -0.91813,0.0151 0.57518,1.74334 0.86328,2.61523 -0.0359,0.008 -0.0717,0.0159 -0.10742,0.0234 -3.68651,0.82836 -3.55531,-4.16089 0.20703,-3.8125 0.25848,0.0227 0.51692,0.0485 0.77539,0.0723 10e-4,0.002 0.004,0.005 0.006,0.008 0.16697,-0.0527 0.33041,-0.11742 0.5,-0.16016 1.35471,-0.34167 2.7574,-0.4773 4.08203,-0.94922 0.44491,-0.15847 0.84802,-0.23408 1.20703,-0.24218 z M 272.62695,313.375 c -0.0263,0.0866 -0.0559,0.17521 -0.082,0.26172 0.0689,0.0386 0.13813,0.0766 0.20703,0.11523 -0.0415,-0.12521 -0.0804,-0.26408 -0.125,-0.37695 z m -1.16992,4.02539 c -0.57168,2.08398 -1.08228,4.18115 -1.52539,6.31445 1.03974,0.43176 2.09731,0.81648 3.16602,1.16407 -0.5024,-0.88069 3.66681,-5.10486 0.83984,-3.7793 -0.26993,0.12661 -0.6234,0.14891 -0.81055,0.38086 -0.29125,0.36118 -0.49197,0.9871 -0.43164,1.38672 0.0236,0.0379 0.0498,0.0748 0.0723,0.11328 0.0621,0.0824 0.28544,0.27255 0.18554,0.24609 -0.15591,-0.0387 -0.23046,-0.17826 -0.25781,-0.35937 -0.22958,-0.36971 -0.50018,-0.72047 -0.65234,-1.12696 -0.31193,-0.83323 0.0533,-1.84444 0.25,-2.64453 0.16069,-0.6536 0.19657,-0.82428 0.25586,-1.08593 -0.36353,-0.20388 -0.72825,-0.40559 -1.0918,-0.60938 z m 4.55664,2.54688 c -10e-4,0.004 -8.8e-4,0.005 -0.002,0.01 -0.06,0.25279 -0.13058,0.50241 -0.19531,0.75391 0.8817,1.21893 0.94018,2.65811 -0.36133,3.79492 -0.34636,0.30236 -0.87889,0.27102 -1.31836,0.40625 -0.22027,0.0679 -0.39963,0.10652 -0.54688,0.12109 2.79071,0.87244 5.66391,1.48154 8.57032,1.87891 1.49715,0.20472 4.98191,0.48644 7.77148,0.70508 -5.45121,-3.00416 -10.90016,-5.99706 -13.03125,-7.17578 -0.29604,-0.16375 -0.59098,-0.32977 -0.88672,-0.49414 z m -0.25,0.97265 c -0.004,0.0197 -0.0114,0.0388 -0.0156,0.0586 -0.0159,0.0737 -0.0455,0.16344 -0.004,0.22656 0.0299,0.045 0.0596,-0.0987 0.0527,-0.15235 -0.006,-0.0452 -0.0233,-0.0884 -0.0332,-0.13281 z"
       inkscape:connector-curvature="0" />
    <path
       style="fill:none;stroke-width:0.76335877"
       d="m 281.09794,404.03917 c -5.29289,-1.61003 -9.40437,-5.0758 -11.83203,-9.97379 -1.98612,-4.00715 -3.43877,-5.34351 -5.8085,-5.34351 -2.37223,0 -2.66214,0.26602 -6.21275,5.70102 -1.36271,2.08595 -3.96717,4.83404 -5.78769,6.10687 -3.07167,2.1476 -3.7903,2.31424 -9.97941,2.31424 -5.99005,0 -6.99096,-0.2128 -9.82645,-2.08925 -1.73639,-1.14908 -4.55611,-3.98305 -6.26605,-6.29771 -3.17806,-4.30198 -5.82829,-5.43913 -7.58431,-3.25426 -4.17117,5.18984 -6.10465,6.91177 -9.77997,8.70995 -8.60489,4.20998 -21.83312,3.03383 -28.44419,-2.52902 l -2.26584,-1.90658 5.3641,-2.68354 c 7.04298,-3.52346 12.11082,-8.68643 15.74752,-16.04313 l 2.90952,-5.88568 0.42895,-69.88825 c 0.41239,-67.18972 0.49012,-70.15353 2.01326,-76.75848 2.31422,-10.03544 4.36818,-15.77151 9.02026,-25.19084 13.04508,-26.4131 37.07732,-44.92504 63.94937,-49.25997 8.27841,-1.33545 23.66046,-0.61614 31.71154,1.48292 24.06849,6.27509 44.49629,23.05534 56.41974,46.34556 7.30238,14.26381 10.39345,25.59574 11.64309,42.68374 0.3979,5.44103 0.73347,35.66986 0.74572,67.17516 0.0246,63.16959 -0.0281,62.39725 4.79984,70.39568 3.06375,5.07567 6.62181,8.5321 12.26811,11.91763 l 4.45028,2.66839 -3.04031,2.01198 c -8.70135,5.75828 -22.31211,5.58331 -30.56201,-0.39288 -1.75774,-1.2733 -4.64792,-4.2059 -6.42263,-6.5169 -1.7747,-2.31099 -3.96765,-4.39339 -4.8732,-4.62757 -2.32843,-0.60213 -4.73762,0.91499 -5.32307,3.35203 -2.13539,8.88883 -9.72031,15.00485 -18.60299,15.00035 -7.28635,-0.004 -12.12752,-3.00003 -17.48811,-10.82391 -1.21181,-1.76866 -2.28757,-2.47755 -3.74707,-2.46922 -2.82629,0.0161 -3.34694,0.51413 -5.75771,5.50708 -1.16148,2.40556 -3.35888,5.40169 -4.88311,6.65809 -4.7327,3.90109 -11.71599,5.50622 -16.9839,3.9038 z m 23.57109,-126.44445 c 8.15677,-1.20994 22.975,-5.50976 25.59811,-7.42782 1.65147,-1.20759 1.87921,-4.98447 0.35864,-5.94764 -1.67243,-1.05935 -3.21356,-0.82848 -10.35733,1.55163 -12.08192,4.02537 -18.44546,4.99682 -32.29534,4.93021 -13.62029,-0.0655 -22.33857,-1.42787 -33.53065,-5.23965 -8.12062,-2.76571 -10.74416,-2.3899 -10.74416,1.53905 0,2.22367 1.82837,3.62118 7.25191,5.54295 16.24871,5.75754 36.26742,7.63994 53.71882,5.05127 z m -40.15099,-33.44529 c 12.14199,-2.85712 20.61813,-14.54585 19.34952,-26.68329 -0.45454,-4.34875 -2.94204,-10.77975 -5.28938,-13.67475 -0.68874,-0.84943 -5.95968,-2.63962 -14.34757,-4.87292 l -13.25887,-3.53022 -4.01028,2.09965 c -4.51083,2.36172 -8.45743,6.37373 -11.05453,11.23774 -1.48996,2.7905 -1.75062,4.41525 -1.75062,10.91226 0,6.49701 0.26066,8.12175 1.75062,10.91226 3.74668,7.01701 10.19035,12.10378 17.52108,13.8315 4.13736,0.9751 6.13719,0.93322 11.09003,-0.23223 z m 63.5314,-1.53863 c 10.86735,-4.96237 17.11805,-18.33761 13.8398,-29.61439 -0.67887,-2.33526 -2.37306,-5.89833 -3.76484,-7.91795 -2.61284,-3.79148 -8.48095,-8.38964 -11.75564,-9.21154 -1.1595,-0.29101 -6.7952,0.91322 -14.87771,3.17906 l -13.01116,3.64753 -2.21876,3.49862 c -3.05185,4.81227 -3.93432,8.64343 -3.53668,15.35417 1.04096,17.56767 19.23005,28.41394 35.32499,21.0645 z"
       id="path4098"
       inkscape:connector-curvature="0"
       transform="matrix(0.26458333,0,0,0.26458333,0,172.9104)" />
    <path
       style="fill:none;stroke-width:0.76335877"
       d="m 281.09794,404.03917 c -5.29289,-1.61003 -9.40437,-5.0758 -11.83203,-9.97379 -1.98612,-4.00715 -3.43877,-5.34351 -5.8085,-5.34351 -2.37223,0 -2.66214,0.26602 -6.21275,5.70102 -1.36271,2.08595 -3.96717,4.83404 -5.78769,6.10687 -3.07167,2.1476 -3.7903,2.31424 -9.97941,2.31424 -5.99005,0 -6.99096,-0.2128 -9.82645,-2.08925 -1.73639,-1.14908 -4.55611,-3.98305 -6.26605,-6.29771 -3.17806,-4.30198 -5.82829,-5.43913 -7.58431,-3.25426 -4.17117,5.18984 -6.10465,6.91177 -9.77997,8.70995 -8.60489,4.20998 -21.83312,3.03383 -28.44419,-2.52902 l -2.26584,-1.90658 5.3641,-2.68354 c 7.04298,-3.52346 12.11082,-8.68643 15.74752,-16.04313 l 2.90952,-5.88568 0.42895,-69.88825 c 0.41239,-67.18972 0.49012,-70.15353 2.01326,-76.75848 2.31422,-10.03544 4.36818,-15.77151 9.02026,-25.19084 13.04508,-26.4131 37.07732,-44.92504 63.94937,-49.25997 8.27841,-1.33545 23.66046,-0.61614 31.71154,1.48292 24.06849,6.27509 44.49629,23.05534 56.41974,46.34556 7.30238,14.26381 10.39345,25.59574 11.64309,42.68374 0.3979,5.44103 0.73347,35.66986 0.74572,67.17516 0.0246,63.16959 -0.0281,62.39725 4.79984,70.39568 3.06375,5.07567 6.62181,8.5321 12.26811,11.91763 l 4.45028,2.66839 -3.04031,2.01198 c -8.70135,5.75828 -22.31211,5.58331 -30.56201,-0.39288 -1.75774,-1.2733 -4.64792,-4.2059 -6.42263,-6.5169 -1.7747,-2.31099 -3.96765,-4.39339 -4.8732,-4.62757 -2.32843,-0.60213 -4.73762,0.91499 -5.32307,3.35203 -2.13539,8.88883 -9.72031,15.00485 -18.60299,15.00035 -7.28635,-0.004 -12.12752,-3.00003 -17.48811,-10.82391 -1.21181,-1.76866 -2.28757,-2.47755 -3.74707,-2.46922 -2.82629,0.0161 -3.34694,0.51413 -5.75771,5.50708 -1.16148,2.40556 -3.35888,5.40169 -4.88311,6.65809 -4.7327,3.90109 -11.71599,5.50622 -16.9839,3.9038 z m 23.57109,-126.44445 c 8.15677,-1.20994 22.975,-5.50976 25.59811,-7.42782 1.65147,-1.20759 1.87921,-4.98447 0.35864,-5.94764 -1.67243,-1.05935 -3.21356,-0.82848 -10.35733,1.55163 -12.08192,4.02537 -18.44546,4.99682 -32.29534,4.93021 -13.62029,-0.0655 -22.33857,-1.42787 -33.53065,-5.23965 -8.12062,-2.76571 -10.74416,-2.3899 -10.74416,1.53905 0,2.22367 1.82837,3.62118 7.25191,5.54295 16.24871,5.75754 36.26742,7.63994 53.71882,5.05127 z m -40.15099,-33.44529 c 12.14199,-2.85712 20.61813,-14.54585 19.34952,-26.68329 -0.45454,-4.34875 -2.94204,-10.77975 -5.28938,-13.67475 -0.68874,-0.84943 -5.95968,-2.63962 -14.34757,-4.87292 l -13.25887,-3.53022 -4.01028,2.09965 c -4.51083,2.36172 -8.45743,6.37373 -11.05453,11.23774 -1.48996,2.7905 -1.75062,4.41525 -1.75062,10.91226 0,6.49701 0.26066,8.12175 1.75062,10.91226 3.74668,7.01701 10.19035,12.10378 17.52108,13.8315 4.13736,0.9751 6.13719,0.93322 11.09003,-0.23223 z m 63.5314,-1.53863 c 10.86735,-4.96237 17.11805,-18.33761 13.8398,-29.61439 -0.67887,-2.33526 -2.37306,-5.89833 -3.76484,-7.91795 -2.61284,-3.79148 -8.48095,-8.38964 -11.75564,-9.21154 -1.1595,-0.29101 -6.7952,0.91322 -14.87771,3.17906 l -13.01116,3.64753 -2.21876,3.49862 c -3.05185,4.81227 -3.93432,8.64343 -3.53668,15.35417 1.04096,17.56767 19.23005,28.41394 35.32499,21.0645 z"
       id="path4100"
       inkscape:connector-curvature="0"
       transform="matrix(0.26458333,0,0,0.26458333,0,172.9104)" />
    <path
       style="fill:none;stroke-width:0.76335877"
       d="m 281.09794,404.03917 c -5.29289,-1.61003 -9.40437,-5.0758 -11.83203,-9.97379 -1.98612,-4.00715 -3.43877,-5.34351 -5.8085,-5.34351 -2.37223,0 -2.66214,0.26602 -6.21275,5.70102 -1.36271,2.08595 -3.96717,4.83404 -5.78769,6.10687 -3.07167,2.1476 -3.7903,2.31424 -9.97941,2.31424 -5.99005,0 -6.99096,-0.2128 -9.82645,-2.08925 -1.73639,-1.14908 -4.55611,-3.98305 -6.26605,-6.29771 -3.17806,-4.30198 -5.82829,-5.43913 -7.58431,-3.25426 -4.17117,5.18984 -6.10465,6.91177 -9.77997,8.70995 -8.60489,4.20998 -21.83312,3.03383 -28.44419,-2.52902 l -2.26584,-1.90658 5.3641,-2.68354 c 7.04298,-3.52346 12.11082,-8.68643 15.74752,-16.04313 l 2.90952,-5.88568 0.42895,-69.88825 c 0.41239,-67.18972 0.49012,-70.15353 2.01326,-76.75848 2.31422,-10.03544 4.36818,-15.77151 9.02026,-25.19084 13.04508,-26.4131 37.07732,-44.92504 63.94937,-49.25997 8.27841,-1.33545 23.66046,-0.61614 31.71154,1.48292 24.06849,6.27509 44.49629,23.05534 56.41974,46.34556 7.30238,14.26381 10.39345,25.59574 11.64309,42.68374 0.3979,5.44103 0.73347,35.66986 0.74572,67.17516 0.0246,63.16959 -0.0281,62.39725 4.79984,70.39568 3.06375,5.07567 6.62181,8.5321 12.26811,11.91763 l 4.45028,2.66839 -3.04031,2.01198 c -8.70135,5.75828 -22.31211,5.58331 -30.56201,-0.39288 -1.75774,-1.2733 -4.64792,-4.2059 -6.42263,-6.5169 -1.7747,-2.31099 -3.96765,-4.39339 -4.8732,-4.62757 -2.32843,-0.60213 -4.73762,0.91499 -5.32307,3.35203 -2.13539,8.88883 -9.72031,15.00485 -18.60299,15.00035 -7.28635,-0.004 -12.12752,-3.00003 -17.48811,-10.82391 -1.21181,-1.76866 -2.28757,-2.47755 -3.74707,-2.46922 -2.82629,0.0161 -3.34694,0.51413 -5.75771,5.50708 -1.16148,2.40556 -3.35888,5.40169 -4.88311,6.65809 -4.7327,3.90109 -11.71599,5.50622 -16.9839,3.9038 z m 23.57109,-126.44445 c 8.15677,-1.20994 22.975,-5.50976 25.59811,-7.42782 1.65147,-1.20759 1.87921,-4.98447 0.35864,-5.94764 -1.67243,-1.05935 -3.21356,-0.82848 -10.35733,1.55163 -12.08192,4.02537 -18.44546,4.99682 -32.29534,4.93021 -13.62029,-0.0655 -22.33857,-1.42787 -33.53065,-5.23965 -8.12062,-2.76571 -10.74416,-2.3899 -10.74416,1.53905 0,2.22367 1.82837,3.62118 7.25191,5.54295 16.24871,5.75754 36.26742,7.63994 53.71882,5.05127 z m -40.15099,-33.44529 c 12.14199,-2.85712 20.61813,-14.54585 19.34952,-26.68329 -0.45454,-4.34875 -2.94204,-10.77975 -5.28938,-13.67475 -0.68874,-0.84943 -5.95968,-2.63962 -14.34757,-4.87292 l -13.25887,-3.53022 -4.01028,2.09965 c -4.51083,2.36172 -8.45743,6.37373 -11.05453,11.23774 -1.48996,2.7905 -1.75062,4.41525 -1.75062,10.91226 0,6.49701 0.26066,8.12175 1.75062,10.91226 3.74668,7.01701 10.19035,12.10378 17.52108,13.8315 4.13736,0.9751 6.13719,0.93322 11.09003,-0.23223 z m 63.5314,-1.53863 c 10.86735,-4.96237 17.11805,-18.33761 13.8398,-29.61439 -0.67887,-2.33526 -2.37306,-5.89833 -3.76484,-7.91795 -2.61284,-3.79148 -8.48095,-8.38964 -11.75564,-9.21154 -1.1595,-0.29101 -6.7952,0.91322 -14.87771,3.17906 l -13.01116,3.64753 -2.21876,3.49862 c -3.05185,4.81227 -3.93432,8.64343 -3.53668,15.35417 1.04096,17.56767 19.23005,28.41394 35.32499,21.0645 z"
       id="path4102"
       inkscape:connector-curvature="0"
       transform="matrix(0.26458333,0,0,0.26458333,0,172.9104)" />
    <path
       style="fill:none;stroke-width:0.76335877"
       d="m 281.09794,404.03917 c -5.29289,-1.61003 -9.40437,-5.0758 -11.83203,-9.97379 -1.98612,-4.00715 -3.43877,-5.34351 -5.8085,-5.34351 -2.37223,0 -2.66214,0.26602 -6.21275,5.70102 -1.36271,2.08595 -3.96717,4.83404 -5.78769,6.10687 -3.07167,2.1476 -3.7903,2.31424 -9.97941,2.31424 -5.99005,0 -6.99096,-0.2128 -9.82645,-2.08925 -1.73639,-1.14908 -4.55611,-3.98305 -6.26605,-6.29771 -3.17806,-4.30198 -5.82829,-5.43913 -7.58431,-3.25426 -4.17117,5.18984 -6.10465,6.91177 -9.77997,8.70995 -8.60489,4.20998 -21.83312,3.03383 -28.44419,-2.52902 l -2.26584,-1.90658 5.3641,-2.68354 c 7.04298,-3.52346 12.11082,-8.68643 15.74752,-16.04313 l 2.90952,-5.88568 0.42895,-69.88825 c 0.41239,-67.18972 0.49012,-70.15353 2.01326,-76.75848 2.31422,-10.03544 4.36818,-15.77151 9.02026,-25.19084 13.04508,-26.4131 37.07732,-44.92504 63.94937,-49.25997 8.27841,-1.33545 23.66046,-0.61614 31.71154,1.48292 24.06849,6.27509 44.49629,23.05534 56.41974,46.34556 7.30238,14.26381 10.39345,25.59574 11.64309,42.68374 0.3979,5.44103 0.73347,35.66986 0.74572,67.17516 0.0246,63.16959 -0.0281,62.39725 4.79984,70.39568 3.06375,5.07567 6.62181,8.5321 12.26811,11.91763 l 4.45028,2.66839 -3.04031,2.01198 c -8.70135,5.75828 -22.31211,5.58331 -30.56201,-0.39288 -1.75774,-1.2733 -4.64792,-4.2059 -6.42263,-6.5169 -1.7747,-2.31099 -3.96765,-4.39339 -4.8732,-4.62757 -2.32843,-0.60213 -4.73762,0.91499 -5.32307,3.35203 -2.13539,8.88883 -9.72031,15.00485 -18.60299,15.00035 -7.28635,-0.004 -12.12752,-3.00003 -17.48811,-10.82391 -1.21181,-1.76866 -2.28757,-2.47755 -3.74707,-2.46922 -2.82629,0.0161 -3.34694,0.51413 -5.75771,5.50708 -1.16148,2.40556 -3.35888,5.40169 -4.88311,6.65809 -4.7327,3.90109 -11.71599,5.50622 -16.9839,3.9038 z m 23.57109,-126.44445 c 8.15677,-1.20994 22.975,-5.50976 25.59811,-7.42782 1.65147,-1.20759 1.87921,-4.98447 0.35864,-5.94764 -1.67243,-1.05935 -3.21356,-0.82848 -10.35733,1.55163 -12.08192,4.02537 -18.44546,4.99682 -32.29534,4.93021 -13.62029,-0.0655 -22.33857,-1.42787 -33.53065,-5.23965 -8.12062,-2.76571 -10.74416,-2.3899 -10.74416,1.53905 0,2.22367 1.82837,3.62118 7.25191,5.54295 16.24871,5.75754 36.26742,7.63994 53.71882,5.05127 z m -40.15099,-33.44529 c 12.14199,-2.85712 20.61813,-14.54585 19.34952,-26.68329 -0.45454,-4.34875 -2.94204,-10.77975 -5.28938,-13.67475 -0.68874,-0.84943 -5.95968,-2.63962 -14.34757,-4.87292 l -13.25887,-3.53022 -4.01028,2.09965 c -4.51083,2.36172 -8.45743,6.37373 -11.05453,11.23774 -1.48996,2.7905 -1.75062,4.41525 -1.75062,10.91226 0,6.49701 0.26066,8.12175 1.75062,10.91226 3.74668,7.01701 10.19035,12.10378 17.52108,13.8315 4.13736,0.9751 6.13719,0.93322 11.09003,-0.23223 z m 63.5314,-1.53863 c 10.86735,-4.96237 17.11805,-18.33761 13.8398,-29.61439 -0.67887,-2.33526 -2.37306,-5.89833 -3.76484,-7.91795 -2.61284,-3.79148 -8.48095,-8.38964 -11.75564,-9.21154 -1.1595,-0.29101 -6.7952,0.91322 -14.87771,3.17906 l -13.01116,3.64753 -2.21876,3.49862 c -3.05185,4.81227 -3.93432,8.64343 -3.53668,15.35417 1.04096,17.56767 19.23005,28.41394 35.32499,21.0645 z"
       id="path4104"
       inkscape:connector-curvature="0"
       transform="matrix(0.26458333,0,0,0.26458333,0,172.9104)" />
    <path
       style="fill:none;stroke-width:0.76335877"
       d="m 281.09794,404.03917 c -5.29289,-1.61003 -9.40437,-5.0758 -11.83203,-9.97379 -1.98612,-4.00715 -3.43877,-5.34351 -5.8085,-5.34351 -2.37223,0 -2.66214,0.26602 -6.21275,5.70102 -1.36271,2.08595 -3.96717,4.83404 -5.78769,6.10687 -3.07167,2.1476 -3.7903,2.31424 -9.97941,2.31424 -5.99005,0 -6.99096,-0.2128 -9.82645,-2.08925 -1.73639,-1.14908 -4.55611,-3.98305 -6.26605,-6.29771 -3.17806,-4.30198 -5.82829,-5.43913 -7.58431,-3.25426 -4.17117,5.18984 -6.10465,6.91177 -9.77997,8.70995 -8.60489,4.20998 -21.83312,3.03383 -28.44419,-2.52902 l -2.26584,-1.90658 5.3641,-2.68354 c 7.04298,-3.52346 12.11082,-8.68643 15.74752,-16.04313 l 2.90952,-5.88568 0.42895,-69.88825 c 0.41239,-67.18972 0.49012,-70.15353 2.01326,-76.75848 2.31422,-10.03544 4.36818,-15.77151 9.02026,-25.19084 13.04508,-26.4131 37.07732,-44.92504 63.94937,-49.25997 8.27841,-1.33545 23.66046,-0.61614 31.71154,1.48292 24.06849,6.27509 44.49629,23.05534 56.41974,46.34556 7.30238,14.26381 10.39345,25.59574 11.64309,42.68374 0.3979,5.44103 0.73347,35.66986 0.74572,67.17516 0.0246,63.16959 -0.0281,62.39725 4.79984,70.39568 3.06375,5.07567 6.62181,8.5321 12.26811,11.91763 l 4.45028,2.66839 -3.04031,2.01198 c -8.70135,5.75828 -22.31211,5.58331 -30.56201,-0.39288 -1.75774,-1.2733 -4.64792,-4.2059 -6.42263,-6.5169 -1.7747,-2.31099 -3.96765,-4.39339 -4.8732,-4.62757 -2.32843,-0.60213 -4.73762,0.91499 -5.32307,3.35203 -2.13539,8.88883 -9.72031,15.00485 -18.60299,15.00035 -7.28635,-0.004 -12.12752,-3.00003 -17.48811,-10.82391 -1.21181,-1.76866 -2.28757,-2.47755 -3.74707,-2.46922 -2.82629,0.0161 -3.34694,0.51413 -5.75771,5.50708 -1.16148,2.40556 -3.35888,5.40169 -4.88311,6.65809 -4.7327,3.90109 -11.71599,5.50622 -16.9839,3.9038 z m 23.57109,-126.44445 c 8.15677,-1.20994 22.975,-5.50976 25.59811,-7.42782 1.65147,-1.20759 1.87921,-4.98447 0.35864,-5.94764 -1.67243,-1.05935 -3.21356,-0.82848 -10.35733,1.55163 -12.08192,4.02537 -18.44546,4.99682 -32.29534,4.93021 -13.62029,-0.0655 -22.33857,-1.42787 -33.53065,-5.23965 -8.12062,-2.76571 -10.74416,-2.3899 -10.74416,1.53905 0,2.22367 1.82837,3.62118 7.25191,5.54295 16.24871,5.75754 36.26742,7.63994 53.71882,5.05127 z m -40.15099,-33.44529 c 12.14199,-2.85712 20.61813,-14.54585 19.34952,-26.68329 -0.45454,-4.34875 -2.94204,-10.77975 -5.28938,-13.67475 -0.68874,-0.84943 -5.95968,-2.63962 -14.34757,-4.87292 l -13.25887,-3.53022 -4.01028,2.09965 c -4.51083,2.36172 -8.45743,6.37373 -11.05453,11.23774 -1.48996,2.7905 -1.75062,4.41525 -1.75062,10.91226 0,6.49701 0.26066,8.12175 1.75062,10.91226 3.74668,7.01701 10.19035,12.10378 17.52108,13.8315 4.13736,0.9751 6.13719,0.93322 11.09003,-0.23223 z m 63.5314,-1.53863 c 10.86735,-4.96237 17.11805,-18.33761 13.8398,-29.61439 -0.67887,-2.33526 -2.37306,-5.89833 -3.76484,-7.91795 -2.61284,-3.79148 -8.48095,-8.38964 -11.75564,-9.21154 -1.1595,-0.29101 -6.7952,0.91322 -14.87771,3.17906 l -13.01116,3.64753 -2.21876,3.49862 c -3.05185,4.81227 -3.93432,8.64343 -3.53668,15.35417 1.04096,17.56767 19.23005,28.41394 35.32499,21.0645 z"
       id="path4106"
       inkscape:connector-curvature="0"
       transform="matrix(0.26458333,0,0,0.26458333,0,172.9104)" />
    <path
       sodipodi:type="star"
       style="fill:none;stroke-width:0.26458332"
       id="path4119"
       sodipodi:sides="5"
       sodipodi:cx="79.778946"
       sodipodi:cy="188.54102"
       sodipodi:r1="44.691982"
       sodipodi:r2="22.345991"
       sodipodi:arg1="0.52026719"
       sodipodi:arg2="1.1485857"
       inkscape:flatsided="false"
       inkscape:rounded="0"
       inkscape:randomized="0"
       d="m 118.55757,210.75794 -29.62173,-1.83324 -18.303187,23.36239 -7.410107,-28.73845 -27.874945,-10.18799 25.042032,-15.92809 1.075525,-29.65891 22.886934,18.89433 28.539658,-8.14222 -10.89713,27.60544 z"
       inkscape:transform-center-x="2.8263611"
       inkscape:transform-center-y="1.4893498" />
    <path
       sodipodi:type="star"
       style="fill:none;stroke-width:0.26458332"
       id="path4121"
       sodipodi:sides="5"
       sodipodi:cx="127.24236"
       sodipodi:cy="194.80215"
       sodipodi:r1="43.626419"
       sodipodi:r2="21.813211"
       sodipodi:arg1="0.84107826"
       sodipodi:arg2="1.4693968"
       inkscape:flatsided="false"
       inkscape:rounded="0"
       inkscape:randomized="0"
       d="m 156.32633,227.31965 -26.87591,-10.81633 -24.14659,16.00779 1.98182,-28.90294 -22.686013,-18.01809 28.100743,-7.04667 10.12586,-27.14359 15.38539,24.54786 28.94415,1.24244 -18.59205,22.21807 z"
       inkscape:transform-center-x="1.3646585"
       inkscape:transform-center-y="-2.8466886" />
    <path
       style="fill:#6cab35;fill-opacity:1;stroke-width:0.29616973"
       d="M 65.53856,263.81008 H 33.27438 v 32.23784 l 0.0331,0.0331 32.25126,-32.25075 z"
       id="path885-3"
       inkscape:connector-curvature="0" />
    <g
       id="g4325"
       transform="matrix(0.16543703,0,0,0.16543703,26.577632,228.26048)">
      <path
         id="path4287"
         d="M 15.305971,249.86755 5.2959958,259.87753 15.305604,269.88713 Z"
         style="fill:#378bba;fill-opacity:1;stroke-width:0.0997422"
         inkscape:connector-curvature="0" />
      <path
         id="path4298"
         d="m 17.816321,273.54961 v 14.9671 L 46.455503,259.87753 17.81632,231.23834 v 14.9671 l 13.67209,13.67209 z"
         style="fill:#30b9db;fill-opacity:1;stroke-width:0.2659792"
         inkscape:connector-curvature="0" />
      <path
         id="path4294"
         d="M 15.305971,231.15868 -13.412871,259.87753 15.305604,288.596 V 273.62891 L 1.5542224,259.87753 15.305971,246.12578 Z"
         style="fill:#378bba;fill-opacity:1;stroke-width:0.2659792"
         inkscape:connector-curvature="0" />
    </g>
    <text
       xml:space="preserve"
       style="font-style:normal;font-variant:normal;font-weight:normal;font-stretch:normal;font-size:6.28491116px;line-height:1.25;font-family:HGPSoeiKakupoptai;-inkscape-font-specification:'HGPSoeiKakupoptai, Normal';font-variant-ligatures:normal;font-variant-caps:normal;font-variant-numeric:normal;font-feature-settings:normal;text-align:start;letter-spacing:0px;word-spacing:0px;writing-mode:lr-tb;text-anchor:start;fill:#2a6b8f;fill-opacity:1;stroke:none;stroke-width:0.08001835;"
       x="31.492132"
       y="284.01447"
       id="text845"><tspan
         sodipodi:role="line"
         id="tspan843"
         x="31.492132"
         y="284.01447"
         style="font-style:normal;font-variant:normal;font-weight:normal;font-stretch:normal;font-size:6.28491116px;font-family:HGPSoeiKakupoptai;-inkscape-font-specification:'HGPSoeiKakupoptai, Normal';font-variant-ligatures:normal;font-variant-caps:normal;font-variant-numeric:normal;font-feature-settings:normal;text-align:start;writing-mode:lr-tb;text-anchor:start;fill:#2a6b8f;fill-opacity:1;stroke-width:0.08001835;">のんぷろ</tspan><tspan
         sodipodi:role="line"
         x="31.492132"
         y="291.87061"
         style="font-style:normal;font-variant:normal;font-weight:normal;font-stretch:normal;font-size:6.28491116px;font-family:HGPSoeiKakupoptai;-inkscape-font-specification:'HGPSoeiKakupoptai, Normal';font-variant-ligatures:normal;font-variant-caps:normal;font-variant-numeric:normal;font-feature-settings:normal;text-align:start;writing-mode:lr-tb;text-anchor:start;fill:#2a6b8f;fill-opacity:1;stroke-width:0.08001835;"
         id="tspan847">えふしゃーぷ</tspan></text>
    <path
       style="fill:#76bb39;fill-opacity:1;stroke-width:0.29616973"
       d="m 33.27438,231.5459 v 32.26418 h 32.23784 l 0.0331,-0.0331 -32.25075,-32.25126 z"
       id="path885"
       inkscape:connector-curvature="0" />
    <text
       xml:space="preserve"
       style="font-style:normal;font-variant:normal;font-weight:normal;font-stretch:normal;font-size:8.94221115px;line-height:1.25;font-family:HGPSoeiKakupoptai;-inkscape-font-specification:'HGPSoeiKakupoptai, Normal';font-variant-ligatures:normal;font-variant-caps:normal;font-variant-numeric:normal;font-feature-settings:normal;text-align:start;letter-spacing:0px;word-spacing:0px;writing-mode:lr-tb;text-anchor:start;fill:#141414;fill-opacity:1;stroke:none;stroke-width:0.11385359"
       x="6.0292883"
       y="254.96854"
       id="text845-0"><tspan
         sodipodi:role="line"
         id="tspan859"
         x="6.0292883"
         y="254.96854">パターンマッチ</tspan></text>
  </g>
  <style
     id="style3783"
     type="text/css">
	.st0{fill:#FFFFFF;}
	.st1{fill:#036994;}
	.st2{fill:none;stroke:#036994;stroke-width:14.4734;stroke-linecap:round;stroke-miterlimit:10;}
	.st3{fill:#FFFFFF;stroke:#036994;stroke-width:14.4734;stroke-linecap:round;stroke-linejoin:round;stroke-miterlimit:10;}
</style>
</svg>
